<?xml version="1.0" encoding="UTF-8" standalone="no"?>
<!-- Created with Inkscape (http://www.inkscape.org/) -->

<svg
   version="1.1"
   id="svg1"
   width="921.59998"
   height="518.40002"
   viewBox="0 0 921.59998 518.40002"
   sodipodi:docname="ground.svg"
   inkscape:version="1.4 (86a8ad7, 2024-10-11)"
   xmlns:inkscape="http://www.inkscape.org/namespaces/inkscape"
   xmlns:sodipodi="http://sodipodi.sourceforge.net/DTD/sodipodi-0.dtd"
   xmlns="http://www.w3.org/2000/svg"
   xmlns:svg="http://www.w3.org/2000/svg">
  <defs
     id="defs1" />
  <sodipodi:namedview
     id="namedview1"
     pagecolor="#ffffff"
     bordercolor="#000000"
     borderopacity="0.25"
     inkscape:showpageshadow="2"
     inkscape:pageopacity="0.0"
     inkscape:pagecheckerboard="0"
     inkscape:deskcolor="#d1d1d1"
     inkscape:zoom="1.1007622"
     inkscape:cx="473.76262"
     inkscape:cy="283.89419"
     inkscape:window-width="1920"
     inkscape:window-height="1009"
     inkscape:window-x="-8"
     inkscape:window-y="-8"
     inkscape:window-maximized="1"
     inkscape:current-layer="g1" />
  <g
     inkscape:groupmode="layer"
     inkscape:label="Image"
     id="g1">
    <path
       style="fill:#000000"
       d="M 2.1999999,514.67418 C 1.43,514.45887 0.79999998,513.74484 0.79999998,513.08745 c 0,-0.89993 0.44473052,-1.03368 1.79999992,-0.54134 2.2350332,0.81195 906.2981501,0.87747 913.1999801,0.0662 4.84699,-0.56975 6.49042,0.10719 3.6,1.48287 -1.45509,0.69254 -914.7321747,1.26908 -917.1999801,0.57902 z m 0,-5.13824 C 1.43,509.08746 0.79999998,508.18916 0.79999998,507.53973 c 0,-1.03177 0.29821832,-1.02658 2.36296192,0.0411 2.1125005,1.09242 50.7216651,1.20059 458.5999881,1.02054 251.30033,-0.11092 456.86589,-0.50935 457.63703,-0.88698 1.01581,-0.49745 1.4,-0.35629 1.4,0.51441 0,0.66 -0.56945,1.41852 -1.26543,1.68559 -2.30693,0.88525 -915.8119554,0.50834 -917.3345501,-0.37849 z M 360.79999,502.00002 v -5.2 h 3.6 c 2.66667,0 3.6,0.31111 3.6,1.2 0,0.86667 0.88889,1.2 3.2,1.2 2.31111,0 3.2,-0.33333 3.2,-1.2 0,-0.66666 0.71111,-1.2 1.6,-1.2 0.88,0 1.6,0.3263 1.6,0.72511 0,0.39881 0.7071,0.54019 1.57133,0.31419 2.76132,-0.7221 5.59098,3.79345 3.02867,4.83313 -0.77004,0.31246 -0.74323,0.58517 0.11657,1.18593 0.61412,0.42909 0.89542,1.3565 0.62511,2.0609 -0.58006,1.51163 -4.22927,1.72454 -4.81186,0.28074 -0.3228,-0.8 -0.41614,-0.8 -0.46666,0 -0.0463,0.7325 -2.31018,1 -8.46316,1 h -8.4 z m 8,1.2 c 0,-0.93897 -0.6149,-0.93897 -2.8,0 -1.4178,0.60925 -1.34948,0.69395 0.6,0.74378 1.21,0.0309 2.2,-0.30378 2.2,-0.74378 z m 103.2,-1.97349 v -5.22651 h 3.6 c 2.66666,0 3.6,0.31111 3.6,1.2 0,0.90667 0.97778,1.2 4,1.2 2.2,0 4,-0.36 4,-0.8 0,-1.05076 3.78665,-1.04004 4.13724,0.0117 0.16244,0.48733 4.1779,0.82552 10.04804,0.84626 5.55479,0.0196 9.98903,0.37685 10.26732,0.82713 0.29714,0.4808 0.85521,0.50756 1.41862,0.068 0.51083,-0.3985 3.37781,-0.74936 6.37107,-0.77968 4.91637,-0.0498 5.50775,0.11702 6.11956,1.7262 0.37249,0.97972 0.49842,2.71681 0.27985,3.86019 l -0.3974,2.07887 -14.12215,-0.11936 -14.12215,-0.11937 -0.25445,-2.21356 c -0.30552,-2.65784 -1.74555,-2.11271 -1.74555,0.66078 0,1.78108 -0.31655,1.95278 -3.6,1.95278 -2.34014,0 -3.60429,-0.34996 -3.61225,-1 -0.008,-0.6884 -0.19539,-0.72695 -0.6,-0.12371 -0.3419,0.50974 -3.68316,0.93912 -7.98775,1.02651 l -7.4,0.15022 z m 7.2,1.24839 c 0,-0.39881 -0.72,-0.53682 -1.6,-0.3067 -0.88,0.23013 -1.6,0.55643 -1.6,0.72511 0,0.16868 0.72,0.30669 1.6,0.30669 0.88,0 1.6,-0.32629 1.6,-0.7251 z m 103.99999,-64.8749 v -51.2 h 74.4 74.4 v 51.2 51.2 h -74.4 -74.4 z m 147.2,0 v -49.6 h -72.8 -72.8 v 49.6 49.6 h 72.8 72.8 z m -143.2,0 v -47.2 h 70.4 70.4 v 47.2 47.2 h -70.4 -70.4 z m 139.2,0 v -45.6 h -68.8 -68.8 v 45.6 45.6 h 68.8 68.8 z m -66.4,36.24 c 0,-1.68 -0.21333,-1.94666 -0.96,-1.2 -0.528,0.528 -1.896,0.96 -3.04,0.96 -1.144,0 -2.512,-0.432 -3.04,-0.96 -0.74666,-0.74666 -0.96,-0.74666 -0.96,0 0,0.528 -0.69719,0.96 -1.54931,0.96 -1.14842,0 -1.6328,-0.67276 -1.87197,-2.6 l -0.32266,-2.6 -0.12803,2.55721 -0.12803,2.55721 -4.59043,-0.15721 c -3.79779,-0.13006 -4.64056,-0.41871 -4.88069,-1.67161 -0.22916,-1.19561 0.0635,-1.42189 1.39043,-1.0749 2.14779,0.56166 2.16447,-0.3237 0.0312,-1.65595 -1.14274,-0.71366 -1.57285,-1.69443 -1.4,-3.19244 0.22167,-1.92105 0.58428,-2.16231 3.25003,-2.16231 1.65029,0 3.00029,-0.27 3,-0.6 -2.9e-4,-0.33 0.71947,-0.6 1.59947,-0.6 1.06667,0 1.6,0.53334 1.6,1.6 0,1.04348 0.53334,1.6 1.53334,1.6 0.84333,0 1.69833,0.45 1.9,1 0.29333,0.8 0.57866,0.8 1.42666,0 1.34711,-1.27085 4.92598,-1.29402 6.18,-0.04 0.74667,0.74667 0.96,0.73324 0.96,-0.0604 0,-0.71196 1.11107,-0.9521 3.67552,-0.7944 2.7942,0.17183 3.85878,-0.10142 4.43976,-1.13957 0.99753,-1.78249 6.28472,-1.92181 6.28472,-0.16561 0,0.69609 -0.75587,1.2213 -1.8,1.25071 -1.78306,0.0502 -1.78411,0.0571 -0.11128,0.73306 2.18351,0.88227 2.85764,2.72711 1.90864,5.22318 -0.56074,1.47485 -1.34531,1.99305 -3.01756,1.99305 -1.24289,0 -2.65117,-0.39137 -3.1295,-0.8697 -0.62628,-0.62628 -1.02016,-0.62628 -1.40722,0 -0.29563,0.47833 -1.23626,0.8697 -2.09029,0.8697 -0.85403,0 -1.55279,0.54 -1.55279,1.2 0,0.66667 -0.71111,1.2 -1.6,1.2 -1.20494,0 -1.6,-0.53333 -1.6,-2.16 z m -3.2,-4.24 c 0,-0.88 -0.36,-1.6 -0.8,-1.6 -0.44,0 -0.8,0.72 -0.8,1.6 0,0.88 0.36,1.6 0.8,1.6 0.44,0 0.8,-0.72 0.8,-1.6 z m 14.76584,0.85528 c 0.25314,-0.4096 0.0944,-0.97084 -0.35279,-1.24721 -0.44718,-0.27637 -0.81305,0.0587 -0.81305,0.74472 0,1.40522 0.48005,1.61213 1.16584,0.50249 z m -6.76584,-0.85528 c 0,-0.44 -0.36,-0.8 -0.8,-0.8 -0.44,0 -0.8,0.36 -0.8,0.8 0,0.44 0.36,0.8 0.8,0.8 0.44,0 0.8,-0.36 0.8,-0.8 z m -20,-2.30669 c 0,-0.38869 -0.81,-0.91078 -1.8,-1.16021 -1.73846,-0.43802 -1.74691,-0.41386 -0.24709,0.70669 1.81138,1.35333 2.04709,1.40555 2.04709,0.45352 z m -281.05213,10.15335 c -16.68044,-29.66562 -15.95952,-28.11499 -13.98786,-30.08666 0.528,-0.528 2.688,-0.96 4.8,-0.96 h 3.84 v -16.70204 c 0,-13.26196 0.22844,-16.89164 1.10911,-17.62252 0.75207,-0.62417 4.8081,-0.84885 12.6,-0.69796 l 11.49089,0.22252 0.2156,17.4 0.2156,17.4 h 3.63699 c 4.31872,0 6.73181,1.11248 6.73181,3.10349 0,0.79595 -4.62602,9.69329 -10.28005,19.77185 -13.07306,23.30333 -12.0862,22.9075 -20.37209,8.17132 z m 18.93379,-10.0545 c 11.10562,-19.80871 11.03288,-19.39216 3.38654,-19.39216 h -3.63699 l -0.2156,-17.4 -0.2156,-17.4 -9.88751,-0.22533 c -6.60662,-0.15055 -10.25667,0.081 -11,0.69796 -0.88498,0.73446 -1.11249,4.33897 -1.11249,17.62533 v 16.70204 h -4.02511 c -2.838,0 -4.16077,0.35354 -4.48511,1.19874 -0.25487,0.6642 1.4962,4.67752 3.92683,9 2.41276,4.2907 6.99049,12.42383 10.17273,18.07364 3.18225,5.64981 6.08348,9.96981 6.44718,9.6 0.3637,-0.36981 5.15401,-8.68591 10.64513,-18.48022 z m -20.19798,-0.23822 c -4.44602,-7.94534 -8.08367,-14.96534 -8.08367,-15.6 0,-0.85139 1.04875,-1.15394 4,-1.15394 h 4 v -17.6 -17.6 h 8.8 8.8 v 16.33457 c 0,8.98401 0.21852,16.90401 0.48559,17.6 0.35125,0.91533 1.56856,1.26543 4.4,1.26543 2.95369,0 3.91441,0.2958 3.91441,1.20523 0,1.98159 -16.04965,29.99477 -17.18497,29.99477 -0.57623,0 -4.68535,-6.50073 -9.13136,-14.44606 z m 17.25587,-2.62692 c 3.66325,-6.53014 6.66046,-12.02014 6.66046,-12.2 0,-0.17986 -1.58148,-0.32702 -3.51441,-0.32702 -2.46669,0 -3.65917,-0.37725 -4,-1.26543 -0.26707,-0.69599 -0.48559,-8.61599 -0.48559,-17.6 v -16.33457 h -7.2 -7.2 v 17.6 17.6 h -3.66667 c -2.01666,0 -3.54666,0.28011 -3.4,0.62247 0.14667,0.34236 3.50667,6.43585 7.46667,13.5411 5.69857,10.22469 7.35422,12.63897 7.93954,11.57753 0.40675,-0.7376 3.73675,-6.68394 7.4,-13.21408 z M 18.4,392.00002 V 296.80001 H 75.199998 132 v 95.20001 95.2 H 75.199998 18.4 Z m 112,0 V 298.40001 H 75.199998 19.999999 v 93.60001 93.6 H 75.199998 130.4 Z m -108.000001,0 V 300.80001 H 75.199998 128 v 91.20001 91.2 H 75.199998 22.399999 Z m 104.000001,0 V 302.40001 H 75.199998 23.999999 v 89.60001 89.6 H 75.199998 126.4 Z m -48.000002,83.44 c 0,-1.68 -0.213333,-1.94666 -0.96,-1.2 -0.528,0.528 -1.896,0.96 -3.04,0.96 -1.144,0 -2.512,-0.432 -3.04,-0.96 -0.746667,-0.74666 -0.96,-0.74666 -0.96,0 0,0.528 -0.697191,0.96 -1.549313,0.96 -1.148424,0 -1.632802,-0.67276 -1.87197,-2.6 l -0.322657,-2.6 -0.12803,2.55721 -0.12803,2.55721 -4.590435,-0.15721 c -3.797788,-0.13006 -4.640555,-0.41871 -4.880692,-1.67161 -0.229154,-1.19561 0.06355,-1.42189 1.390435,-1.0749 2.147791,0.56166 2.164468,-0.3237 0.03119,-1.65595 -1.142747,-0.71366 -1.57285,-1.69443 -1.4,-3.19244 0.221663,-1.92105 0.584278,-2.16231 3.250025,-2.16231 1.650289,0 3.000289,-0.27 3,-0.6 -2.89e-4,-0.33 0.719475,-0.6 1.599475,-0.6 1.066667,0 1.6,0.53334 1.6,1.6 0,1.04348 0.533334,1.6 1.533334,1.6 0.843333,0 1.698333,0.45 1.899999,1 0.293334,0.8 0.578667,0.8 1.426667,0 1.347108,-1.27085 4.925979,-1.29402 6.18,-0.04 0.746667,0.74667 0.96,0.74667 0.96,0 0,-0.58765 1.248844,-0.96 3.219801,-0.96 2.698347,0 3.342948,0.32391 3.980199,2 1.033109,2.71729 -0.269144,6 -2.3802,6 -0.906489,0 -1.6198,0.52845 -1.6198,1.2 0,0.66667 -0.711111,1.2 -1.6,1.2 -1.204938,0 -1.6,-0.53333 -1.6,-2.16 z m -3.2,-4.24 c 0,-0.88 -0.36,-1.6 -0.8,-1.6 -0.44,0 -0.8,0.72 -0.8,1.6 0,0.88 0.36,1.6 0.8,1.6 0.44,0 0.8,-0.72 0.8,-1.6 z m 8,0 c 0,-0.44 -0.36,-0.8 -0.8,-0.8 -0.44,0 -0.8,0.36 -0.8,0.8 0,0.44 0.36,0.8 0.8,0.8 0.44,0 0.8,-0.36 0.8,-0.8 z m -20,-2.30669 c 0,-0.38869 -0.81,-0.91078 -1.8,-1.16021 -1.738464,-0.43802 -1.746912,-0.41386 -0.247096,0.70669 1.811385,1.35333 2.047096,1.40555 2.047096,0.45352 z m 23.228348,5.30669 c 0.01559,-0.55 0.542835,-1.9 1.171652,-3 1.592094,-2.78508 1.470601,-4 -0.4,-4 -0.888889,0 -1.6,-0.53333 -1.6,-1.2 0,-0.88889 0.933333,-1.2 3.6,-1.2 4.257065,0 4.523418,0.90907 1.962564,6.69831 -1.141217,2.57991 -2.110964,3.70169 -3.2,3.70169 -0.85941,0 -1.549808,-0.45 -1.534216,-1 z m 3.754985,-8.28333 c -0.265833,-0.26583 -0.955833,-0.29426 -1.533333,-0.0632 -0.638186,0.25538 -0.448621,0.44495 0.483333,0.48333 0.843333,0.0347 1.315833,-0.15434 1.05,-0.42017 z m 398.371009,19.97102 c -0.30489,-0.30489 -0.55435,-8.75639 -0.55435,-18.7811 v -18.22674 l -4.6,-0.23993 c -4.25246,-0.22179 -4.61362,-0.39103 -4.78022,-2.23992 -0.1117,-1.23954 3.53849,-9.30038 9.6,-21.2 8.83205,-17.33861 9.97411,-19.2 11.78022,-19.2 1.8061,0 2.94816,1.86139 11.78022,19.2 6.0615,11.89962 9.71169,19.96046 9.6,21.2 -0.16653,1.84804 -0.52862,2.0182 -4.76558,2.23949 l -4.58535,0.23948 -0.21465,18.56052 -0.21464,18.56051 -11.24565,0.22103 c -6.1851,0.12156 -11.4951,-0.0284 -11.8,-0.33334 z m 21.66039,-20.08769 0.21475,-18.6 h 4.25192 c 2.33855,0 4.47287,-0.22095 4.74292,-0.491 0.66625,-0.66625 -18.42376,-38.709 -19.42433,-38.709 -1.00058,0 -20.09059,38.04275 -19.42434,38.709 0.27005,0.27005 2.411,0.491 4.75767,0.491 h 4.26667 v 18.26667 c 0,10.04667 0.25051,18.51718 0.5567,18.82336 0.30618,0.30619 4.89618,0.45619 10.2,0.33334 l 9.6433,-0.22337 z m -18.4,-2 -0.21474,-18.6 -3.8,-0.24383 c -2.6589,-0.17061 -3.8,-0.58935 -3.8,-1.39442 0,-2.36275 14.77107,-30.76175 16,-30.76175 1.22892,0 16,28.399 16,30.76175 0,0.80507 -1.14111,1.22381 -3.8,1.39442 l -3.8,0.24383 -0.21475,18.6 -0.21474,18.6 h -7.97051 -7.97051 z m 14.77051,-1.6 0.21475,-18.6 3.4,-0.246 c 1.87,-0.1353 3.4,-0.40249 3.4,-0.59377 0,-0.77139 -13.20797,-26.76023 -13.6,-26.76023 -0.39204,0 -13.6,25.98884 -13.6,26.76023 0,0.19128 1.53,0.45847 3.4,0.59377 l 3.4,0.246 0.21474,18.6 0.21475,18.6 h 6.37051 6.37051 z m 257.41474,-79.4 v -99.60001 h 73.2 73.2 v 99.60001 99.6 h -73.2 -73.2 z m 144.8,0 v -98.00001 h -71.6 -71.6 v 98.00001 98 h 71.6 71.6 z m -140.8,0 v -95.60001 h 69.2 69.2 v 95.60001 95.6 h -69.2 -69.2 z m 136.8,0 v -94.00001 h -67.6 -67.6 v 94.00001 94 h 67.6 67.6 z m -67.2,80.64 c 0,-1.68 -0.21334,-1.94666 -0.96,-1.2 -0.528,0.528 -1.896,0.96 -3.04,0.96 -1.144,0 -2.512,-0.432 -3.04,-0.96 -0.74667,-0.74666 -0.96,-0.74666 -0.96,0 0,0.528 -0.69719,0.96 -1.54932,0.96 -1.14842,0 -1.6328,-0.67276 -1.87197,-2.6 l -0.32265,-2.6 -0.12803,2.55721 -0.12803,2.55721 -4.59044,-0.15721 c -3.79779,-0.13006 -4.64055,-0.41871 -4.88069,-1.67161 -0.22915,-1.19561 0.0635,-1.42189 1.39044,-1.0749 2.14779,0.56166 2.16446,-0.3237 0.0312,-1.65595 -1.14275,-0.71366 -1.57285,-1.69443 -1.4,-3.19244 0.22166,-1.92105 0.58428,-2.16231 3.25002,-2.16231 1.65029,0 3.00029,-0.27 3,-0.6 -2.9e-4,-0.33 0.71948,-0.6 1.59948,-0.6 1.06666,0 1.6,0.53333 1.6,1.6 0,1.04348 0.53333,1.6 1.53333,1.6 0.84333,0 1.69833,0.45 1.9,1 0.29333,0.8 0.57867,0.8 1.42667,0 1.34711,-1.27086 4.92598,-1.29402 6.18,-0.04 0.74666,0.74667 0.96,0.72877 0.96,-0.0805 0,-0.74234 1.03175,-0.9585 3.6,-0.75424 3.00949,0.23936 3.6,0.0557 3.6,-1.11944 0,-1.10673 0.68071,-1.40577 3.2,-1.40577 2.31111,0 3.2,0.33333 3.2,1.2 0,0.70762 -0.73858,1.20484 -1.8,1.21179 -1.76292,0.0116 -1.75879,0.0326 0.2,1.02003 2.26219,1.14041 3.01915,4.05821 1.52109,5.86326 -0.59854,0.72119 -2.15274,1.15527 -3.86141,1.07845 -5.21428,-0.23441 -6.45968,0.002 -6.45968,1.22647 0,0.66667 -0.71111,1.2 -1.6,1.2 -1.20494,0 -1.6,-0.53333 -1.6,-2.16 z m 10.98333,-1.52333 c -0.26583,-0.26583 -0.95583,-0.29426 -1.53333,-0.0632 -0.63819,0.25538 -0.44862,0.44495 0.48333,0.48333 0.84333,0.0347 1.31583,-0.15434 1.05,-0.42017 z m -14.18333,-2.71667 c 0,-0.88 -0.36,-1.6 -0.8,-1.6 -0.44,0 -0.8,0.72 -0.8,1.6 0,0.88 0.36,1.6 0.8,1.6 0.44,0 0.8,-0.72 0.8,-1.6 z m 14.4,0.40863 c 0,-0.56216 -0.82286,-1.1794 -1.82857,-1.37166 -1.27764,-0.24423 -1.82858,0.0294 -1.82858,0.90827 0,0.74369 0.74743,1.30435 1.82858,1.37166 1.01002,0.0629 1.82857,-0.3437 1.82857,-0.90827 z m -6.4,-0.40863 c 0,-0.44 -0.36,-0.8 -0.8,-0.8 -0.44,0 -0.8,0.36 -0.8,0.8 0,0.44 0.36,0.8 0.8,0.8 0.44,0 0.8,-0.36 0.8,-0.8 z m -20,-2.30669 c 0,-0.38869 -0.81,-0.91078 -1.8,-1.16021 -1.73847,-0.43802 -1.74691,-0.41386 -0.2471,0.70669 1.81139,1.35333 2.0471,1.40555 2.0471,0.45352 z M 151.2,428.80002 v -50.4 h 69.19999 69.2 v 50.4 50.4 h -69.2 H 151.2 Z m 136.79999,0 v -48.8 h -67.6 H 152.8 v 48.8 48.8 h 67.59999 67.6 z m -132.79999,0 v -46.4 h 65.19999 65.2 v 46.4 46.4 h -65.2 H 155.2 Z m 128.79999,0 v -44.8 h -63.6 H 156.8 v 44.8 44.8 h 63.59999 63.6 z m -63.2,37.04 c 0,-1.68 -0.21333,-1.94666 -0.96,-1.2 -0.528,0.528 -1.896,0.96 -3.04,0.96 -1.144,0 -2.512,-0.432 -3.04,-0.96 -0.74666,-0.74666 -0.96,-0.74666 -0.96,0 0,0.528 -0.69719,0.96 -1.54931,0.96 -1.14842,0 -1.6328,-0.67276 -1.87197,-2.6 l -0.32266,-2.6 -0.12803,2.55721 -0.12803,2.55721 -4.59043,-0.15721 c -3.79779,-0.13006 -4.64056,-0.41871 -4.88069,-1.67161 -0.22916,-1.19561 0.0635,-1.42189 1.39043,-1.0749 2.14779,0.56166 2.16447,-0.3237 0.0312,-1.65595 -1.14274,-0.71366 -1.57285,-1.69443 -1.4,-3.19244 0.22167,-1.92105 0.58428,-2.16231 3.25003,-2.16231 1.65029,0 3.00029,-0.27 3,-0.6 -2.9e-4,-0.33 0.71947,-0.6 1.59947,-0.6 1.06667,0 1.6,0.53333 1.6,1.6 0,1.04348 0.53334,1.6 1.53334,1.6 0.84333,0 1.69833,0.45 1.9,1 0.29333,0.8 0.57866,0.8 1.42666,0 1.34711,-1.27086 4.92598,-1.29402 6.18,-0.04 0.74667,0.74667 0.96,0.72877 0.96,-0.0806 0,-0.74053 1.02599,-0.95896 3.55836,-0.75755 2.90877,0.23134 3.62778,0.0175 3.93869,-1.17139 0.29999,-1.14717 1.02702,-1.40118 3.44164,-1.20246 2.97108,0.24453 3.076,0.35806 3.55967,3.85195 0.7132,5.15198 -0.26169,6.57319 -4.36218,6.35922 -5.49667,-0.28683 -6.93618,-0.0293 -6.93618,1.24078 0,0.66667 -0.71111,1.2 -1.6,1.2 -1.20493,0 -1.6,-0.53333 -1.6,-2.16 z m -3.2,-4.24 c 0,-0.88 -0.36,-1.6 -0.8,-1.6 -0.44,0 -0.8,0.72 -0.8,1.6 0,0.88 0.36,1.6 0.8,1.6 0.44,0 0.8,-0.72 0.8,-1.6 z m 8,0 c 0,-0.44 -0.36,-0.8 -0.8,-0.8 -0.44,0 -0.8,0.36 -0.8,0.8 0,0.44 0.36,0.8 0.8,0.8 0.44,0 0.8,-0.36 0.8,-0.8 z m -20,-2.30669 c 0,-0.38869 -0.81,-0.91078 -1.8,-1.16021 -1.73846,-0.43802 -1.74691,-0.41386 -0.24709,0.70669 1.81138,1.35333 2.04709,1.40555 2.04709,0.45352 z m 214,-156.63234 c -98.93817,-2.88574 -182.78745,-17.75028 -207.96917,-36.86813 -8.46253,-6.42472 -11.19433,-14.03162 -7.66057,-21.33141 6.59864,-13.63098 38.1027,-25.55218 90.82974,-34.37017 82.05785,-13.72323 206.2425,-15.40257 298.79999,-4.04064 57.41254,7.04769 99.13154,18.62876 113.8831,31.6136 9.23726,8.13096 9.12456,18.28121 -0.29446,26.52074 -26.40972,23.10258 -133.34997,39.53588 -252.78863,38.84554 -15.18,-0.0877 -30.84,-0.25402 -34.8,-0.36953 z m 82,-1.87013 c 103.71585,-3.9098 182.03651,-18.66492 204.27265,-38.48367 8.51848,-7.5924 8.83497,-14.12358 1.05917,-21.85737 -22.40985,-22.28878 -115.49016,-38.42271 -231.73182,-40.16687 -125.48626,-1.88288 -240.50392,15.51281 -265.28169,40.12215 -4.91854,4.88511 -6.50737,8.8741 -5.23117,13.13367 6.78945,22.66116 82.39389,40.90895 192.51286,46.46463 32.40662,1.63497 73.66317,1.94616 104.4,0.78746 z m -81.6,-2.06771 c -80.94926,-3.21433 -139.22027,-10.82049 -177.61808,-23.18462 -32.0325,-10.3145 -43.02179,-22.21624 -31.28974,-33.88775 15.79253,-15.71103 75.48416,-29.68152 152.10782,-35.59998 34.66781,-2.67777 50.27399,-3.19965 95.6,-3.19692 45.26884,0.003 59.52804,0.48412 94.8,3.20049 76.74764,5.91049 136.28564,19.85524 152.14657,35.63517 9.08641,9.04 5.07114,17.61353 -12.32844,26.32407 -28.75796,14.39673 -87.6358,24.68864 -169.41813,29.61447 -13.66838,0.82326 -90.47751,1.63202 -104,1.09507 z m 102.4,-2.69968 c 81.57198,-4.8863 140.66091,-15.2135 169.41813,-29.60986 13.63972,-6.82829 18.60067,-12.76041 15.73016,-18.80955 -8.18394,-17.24639 -71.32774,-33.4637 -155.54829,-39.94969 -34.9331,-2.69027 -49.59836,-3.19317 -93.2,-3.196 -43.6647,-0.003 -59.66964,0.54073 -94,3.19243 -84.06313,6.49309 -147.37707,22.73368 -155.51926,39.89207 -1.81779,3.83071 -0.98692,6.42715 3.48904,10.90311 7.61131,7.61131 28.931,16.0807 55.30758,21.97131 40.42616,9.02826 86.42503,14.03397 153.52264,16.70672 13.29317,0.52951 87.02699,-0.27552 100.8,-1.10054 z m -90.03471,-38.74991 c -2.04245,-1.49348 -2.02497,-6.6664 0.0276,-8.16729 1.98973,-1.45492 6.55178,-1.42042 7.37792,0.0558 0.5088,0.90918 2.82413,1.18677 10.63975,1.27562 13.59779,0.15457 13.3447,0.18456 13.82123,-1.63769 0.25033,-0.95728 1.09121,-1.6 2.0933,-1.6 1.53881,0 1.6749,0.45066 1.6749,5.54639 v 5.54638 l -11.4,-0.14638 -11.4,-0.14639 -0.25445,-2.21356 c -0.30017,-2.61133 -1.74555,-2.13538 -1.74555,0.57478 0,1.73524 -0.32944,1.87144 -4.67471,1.9326 -2.77355,0.039 -5.27875,-0.37589 -6.16,-1.02027 z m 4.54408,-5.90376 c -0.57716,-0.19238 -1.42973,0.0306 -1.89461,0.49545 -0.59366,0.59366 -0.28131,0.69777 1.04937,0.34979 1.08176,-0.28289 1.44439,-0.64552 0.84524,-0.84524 z m 34.29063,1.88585 c 0,-4.75008 0.15639,-5.25564 1.62578,-5.25564 0.93904,0 1.89782,0.73541 2.26982,1.74101 l 0.64404,1.74101 0.45528,-1.74101 c 0.57067,-2.18225 3.80508,-2.43866 3.80508,-0.30165 0,1.18264 0.51582,1.37914 2.89205,1.10173 1.88984,-0.22063 3.13314,0.043 3.58775,0.76064 0.47768,0.75409 0.69954,0.28347 0.70795,-1.50173 0.0118,-2.49796 0.13784,-2.6 3.21225,-2.6 h 3.2 v 5.63834 5.63834 l -8.56546,-0.23834 c -8.38128,-0.23321 -8.57647,-0.28134 -9.07787,-2.23834 l -0.51242,-2 -0.32213,2 c -0.21569,1.33919 -0.91686,2.08447 -2.12212,2.25564 -1.70995,0.24285 -1.8,-0.007 -1.8,-5 z M 20.549421,279.48277 c -1.058791,-1.05879 -0.409741,-4.09113 6.557448,-30.63618 9.850287,-37.52966 9.545636,-37.52977 19.427261,0.007 3.872607,14.71061 6.956676,27.64655 6.853486,28.74655 l -0.187617,2 -16.050578,0.21609 c -8.827818,0.11885 -16.297818,-0.0312 -16.6,-0.33333 z m 30.937573,-1.69991 c 0.761615,-1.23232 -13.582486,-54.18285 -14.677932,-54.18285 -0.714497,0 -3.317789,8.66722 -8.049668,26.8 -3.846508,14.74 -6.829697,27.07 -6.629309,27.4 0.482642,0.79482 28.865332,0.77824 29.356909,-0.0171 z m -26.700342,-2.78285 c -0.0073,-0.55 2.422659,-10.4477 5.4,-21.99488 4.053107,-15.71939 5.714877,-20.99517 6.613347,-20.99601 0.898388,-8.4e-4 2.565426,5.27608 6.632519,20.99488 2.987885,11.54781 5.417885,21.44601 5.399999,21.99601 -0.02452,0.75411 -2.983195,1 -12.032518,1 -9.059548,0 -12.00327,-0.24503 -12.013347,-1 z m 18.71428,-14 c -1.952089,-7.37 -4.147981,-15.83 -4.87976,-18.8 -0.731778,-2.97 -1.546876,-5.4 -1.811329,-5.4 -0.264452,0 -1.263853,3.15 -2.220892,7 -0.957038,3.85 -3.139788,12.31 -4.850556,18.8 l -3.110487,11.8 h 10.211139 10.211139 z m 722.899048,-55.4 v -58.4 h 69.2 69.2 v 58.4 58.4 h -69.2 -69.2 z m 136.8,0 v -56.8 h -67.6 -67.6 v 56.8 56.8 h 67.6 67.6 z m -132.8,0 v -54.4 h 65.2 65.2 v 54.4 54.4 h -65.2 -65.2 z m 128.8,0 v -52.8 h -63.6 -63.6 v 52.8 52.8 h 63.6 63.6 z m -62.4,41.04 c 0,-1.68 -0.21334,-1.94667 -0.96,-1.2 -0.528,0.528 -1.896,0.96 -3.04,0.96 -1.144,0 -2.512,-0.432 -3.04,-0.96 -0.74667,-0.74667 -0.96,-0.74667 -0.96,0 0,0.528 -0.69719,0.96 -1.54932,0.96 -1.14842,0 -1.6328,-0.67276 -1.87197,-2.6 l -0.32265,-2.6 -0.12803,2.55721 -0.12803,2.55721 -4.59044,-0.15721 c -3.79779,-0.13006 -4.64055,-0.41871 -4.88069,-1.67162 -0.22915,-1.1956 0.0635,-1.42188 1.39044,-1.07489 2.14779,0.56166 2.16446,-0.3237 0.0312,-1.65595 -1.14275,-0.71366 -1.57285,-1.69443 -1.4,-3.19244 0.22166,-1.92105 0.58428,-2.16231 3.25002,-2.16231 1.65029,0 3.00029,-0.27 3,-0.6 -2.9e-4,-0.33 0.71948,-0.6 1.59948,-0.6 1.06666,0 1.6,0.53333 1.6,1.6 0,1.04348 0.53333,1.6 1.53333,1.6 0.84333,0 1.69833,0.45 1.9,1 0.29333,0.8 0.57867,0.8 1.42667,0 1.34711,-1.27086 4.92598,-1.29402 6.18,-0.04 0.74666,0.74667 0.96,0.74667 0.96,0 0,-1.19847 5.74285,-1.29714 6.92107,-0.11892 0.58811,0.5881 1.24333,0.22717 2.17845,-1.2 0.73555,-1.12259 2.00224,-2.04108 2.81488,-2.04108 1.16141,0 1.56583,0.78355 1.89033,3.66246 0.22704,2.01436 0.23187,4.35436 0.0107,5.2 -0.47735,1.8254 -2.47255,2.04083 -3.12616,0.33754 -0.25327,-0.66 -1.10345,-1.2 -1.8893,-1.2 -0.78585,0 -1.63604,0.54 -1.8893,1.2 -0.25327,0.66 -1.19179,1.2 -2.08559,1.2 -0.91121,0 -1.62511,0.52715 -1.62511,1.2 0,0.66667 -0.71111,1.2 -1.6,1.2 -1.20494,0 -1.6,-0.53333 -1.6,-2.16 z m -3.2,-4.24 c 0,-0.88 -0.36,-1.6 -0.8,-1.6 -0.44,0 -0.8,0.72 -0.8,1.6 0,0.88 0.36,1.6 0.8,1.6 0.44,0 0.8,-0.72 0.8,-1.6 z m 8,0 c 0,-0.44 -0.36,-0.8 -0.8,-0.8 -0.44,0 -0.8,0.36 -0.8,0.8 0,0.44 0.36,0.8 0.8,0.8 0.44,0 0.8,-0.36 0.8,-0.8 z m -20,-2.30669 c 0,-0.38869 -0.81,-0.91078 -1.8,-1.16021 -1.73847,-0.43802 -1.74691,-0.41386 -0.2471,0.70669 1.81139,1.35333 2.0471,1.40555 2.0471,0.45352 z M 56.799998,251.60001 v -5.2 h 2.7 c 1.485,0 3.825,-0.225 5.2,-0.5 2.398998,-0.4798 2.5,-0.39253 2.5,2.16 0,2.06889 0.213334,2.44667 0.96,1.7 0.528,-0.528 2.868,-0.96 5.2,-0.96 3.495494,0 4.244272,0.24583 4.264327,1.4 0.02317,1.33334 0.06316,1.33334 0.839752,0 0.632024,-1.08512 1.886075,-1.4 5.575673,-1.4 2.640165,0 4.760248,-0.3563 4.760248,-0.8 0,-1.13165 3.800349,-0.99895 4.182008,0.14603 0.214516,0.64354 2.537923,0.90907 7.266664,0.83045 6.27834,-0.10439 6.95133,0.0281 6.95133,1.36838 0,0.81618 -0.54,1.69118 -1.2,1.94444 -0.66,0.25327 -1.2,1.37178 -1.2,2.48559 0,1.49178 -0.42138,2.02511 -1.6,2.02511 -0.88,0 -1.6,-0.40408 -1.6,-0.89795 0,-0.62365 -0.30548,-0.64673 -1,-0.0755 -1.407475,1.15751 -10.996656,1.06478 -11.012253,-0.1065 -0.0078,-0.58907 -0.252953,-0.54039 -0.681428,0.13536 -0.417993,0.65922 -1.827917,0.95951 -3.756155,0.8 -2.521897,-0.20861 -3.180236,-0.62146 -3.596444,-2.25536 l -0.509467,-2 -0.322128,2 c -0.456967,2.83719 -4.412393,3.30926 -5.477329,0.65371 l -0.74338,-1.85371 -0.05071,1.8 c -0.04371,1.55165 -0.483018,1.8 -3.184042,1.8 -1.758129,0 -3.310431,-0.43889 -3.536842,-1 -0.322807,-0.8 -0.416141,-0.8 -0.466667,0 -0.04364,0.69096 -1.670175,1 -5.263158,1 h -5.2 z m 7.080135,-0.6 c -0.108208,-2.34712 -0.151817,-2.39083 -0.448377,-0.44934 -0.180681,1.18286 -0.936741,2.3111 -1.680134,2.5072 -0.95867,0.25288 -0.828315,0.38352 0.448376,0.44934 1.539014,0.0794 1.782621,-0.28418 1.680135,-2.5072 z M 16.8,109.60001 V 22.400001 H 75.199998 133.6 v 87.200009 87.2 H 75.199998 16.8 Z m 115.2,0 V 24.000001 H 75.199998 18.4 v 85.600009 85.6 H 75.199998 132 Z m -111.200001,0 V 26.400001 H 75.199998 129.6 v 83.200009 83.2 H 75.199998 20.799999 Z m 107.200001,0 V 28.000001 H 75.199998 22.399999 v 81.600009 81.6 H 75.199998 128 Z M 57.599998,70.640003 c 0,-1.68 -0.213333,-1.946666 -0.96,-1.2 -1.237534,1.237535 -4.842465,1.237535 -6.079999,0 -0.746667,-0.746666 -0.96,-0.746666 -0.96,0 0,0.528 -0.697191,0.96 -1.549313,0.96 -1.148424,0 -1.632802,-0.672758 -1.871971,-2.6 l -0.322657,-2.6 -0.12803,2.557208 -0.128029,2.557209 -4.590436,-0.157209 c -3.797787,-0.130062 -4.640555,-0.418706 -4.880692,-1.671614 -0.229154,-1.195607 0.06355,-1.421885 1.390436,-1.074896 2.147791,0.56166 2.164467,-0.3237 0.03119,-1.655953 -1.142746,-0.713657 -1.57285,-1.694427 -1.4,-3.192438 0.221663,-1.921052 0.584279,-2.162307 3.250026,-2.162307 1.650288,0 3.000288,-0.27 3,-0.6 -2.89e-4,-0.33 0.719475,-0.6 1.599475,-0.6 1.066666,0 1.6,0.533333 1.6,1.6 0,1.043478 0.533333,1.6 1.533333,1.6 0.843333,0 1.698333,0.45 1.9,1 0.293333,0.8 0.578667,0.8 1.426667,0 1.347108,-1.270857 4.925978,-1.294021 6.179999,-0.04 0.746667,0.746667 0.96,0.746667 0.96,0 0,-0.587651 1.248845,-0.96 3.219801,-0.96 2.698348,0 3.342949,0.323904 3.980199,2 1.03311,2.717284 -0.269143,6 -2.380199,6 -0.906489,0 -1.619801,0.528444 -1.619801,1.2 0,0.666667 -0.711111,1.2 -1.6,1.2 -1.204938,0 -1.6,-0.533333 -1.6,-2.16 z m -3.199999,-4.24 c 0,-0.88 -0.36,-1.6 -0.8,-1.6 -0.44,0 -0.8,0.72 -0.8,1.6 0,0.88 0.36,1.6 0.8,1.6 0.44,0 0.8,-0.72 0.8,-1.6 z m 7.999999,0 c 0,-0.44 -0.36,-0.8 -0.8,-0.8 -0.44,0 -0.8,0.36 -0.8,0.8 0,0.44 0.36,0.8 0.8,0.8 0.44,0 0.8,-0.36 0.8,-0.8 z M 42.399999,64.093308 c 0,-0.388682 -0.81,-0.910777 -1.8,-1.16021 -1.738465,-0.438012 -1.746912,-0.413853 -0.247096,0.706694 1.811385,1.353329 2.047096,1.405548 2.047096,0.453516 z m 23.199999,5.106695 c 0,-0.66 0.36,-1.2 0.8,-1.2 0.44,0 0.8,-0.9 0.8,-2 0,-1.1 -0.36,-2 -0.8,-2 -1.30498,0 -0.90942,-2.986829 0.46543,-3.514409 2.970468,-1.139876 3.53457,-0.578991 3.53457,3.514409 0,2.2 0.36,4 0.8,4 0.44,0 0.8,0.54 0.8,1.2 0,0.866667 -0.888889,1.2 -3.2,1.2 -2.311111,0 -3.2,-0.333333 -3.2,-1.2 z M 567.99998,76.000004 V 24.000001 h 168.4 168.4 v 52.000003 52.000006 h -168.4 -168.4 z m 335.2,0 V 25.600001 h -166.8 -166.8 v 50.400003 50.400006 h 166.8 166.8 z m -331.2,0 V 28.000001 h 164.4 164.4 v 48.000003 48.000006 h -164.4 -164.4 z m 327.2,0 V 29.600001 h -162.8 -162.8 v 46.400003 46.400006 h 162.8 162.8 z m -177.6,41.040006 c 0,-1.68 -0.21333,-1.94667 -0.96,-1.2 -0.528,0.528 -1.896,0.96 -3.04,0.96 -1.144,0 -2.512,-0.432 -3.04,-0.96 -0.74667,-0.74667 -0.96,-0.74667 -0.96,0 0,0.528 -0.69719,0.96 -1.54931,0.96 -1.14843,0 -1.6328,-0.67276 -1.87197,-2.6 l -0.32266,-2.6 -0.12803,2.5572 -0.12803,2.55721 -4.59043,-0.15721 c -3.79779,-0.13006 -4.64056,-0.4187 -4.8807,-1.67161 -0.22915,-1.19561 0.0635,-1.42189 1.39044,-1.0749 2.14779,0.56166 2.16447,-0.3237 0.0312,-1.65595 -1.14275,-0.71366 -1.57285,-1.69443 -1.4,-3.19244 0.22166,-1.92105 0.58428,-2.1623 3.25003,-2.1623 1.65028,0 3.00028,-0.27 3,-0.6 -2.9e-4,-0.33001 0.71947,-0.60001 1.59947,-0.60001 1.06667,0 1.6,0.53334 1.6,1.60001 0,1.04347 0.53333,1.6 1.53333,1.6 0.84334,0 1.69834,0.45 1.9,1 0.29334,0.8 0.57867,0.8 1.42667,0 1.34711,-1.27086 4.92598,-1.29403 6.18,-0.04 0.74667,0.74666 0.96,0.74666 0.96,0 0,-0.58795 1.25017,-0.96 3.22578,-0.96 2.59755,0 3.36669,0.35055 3.94929,1.8 0.39793,0.99 0.74633,1.35 0.77422,0.8 0.0279,-0.55 0.59071,-1 1.25071,-1 0.66,0 1.2,-0.3263 1.2,-0.72511 0,-0.39881 -0.75631,-0.52732 -1.68069,-0.28559 -1.32633,0.34684 -1.62007,0.12021 -1.39316,-1.0749 0.33094,-1.74304 4.17396,-2.52519 5.79541,-1.1795 1.39078,1.15424 1.42272,7.74944 0.0431,8.89444 -0.59931,0.49739 -2.27653,0.82193 -3.72715,0.7212 -4.60298,-0.31961 -6.23749,0.008 -6.23749,1.24946 0,0.66666 -0.71111,1.2 -1.6,1.2 -1.20494,0 -1.6,-0.53334 -1.6,-2.16 z m -3.2,-4.24 c 0,-0.88 -0.36,-1.6 -0.8,-1.6 -0.44,0 -0.8,0.72 -0.8,1.6 0,0.88 0.36,1.6 0.8,1.6 0.44,0 0.8,-0.72 0.8,-1.6 z m 14.4,0.71537 c 0,-0.86445 -2.95301,-0.96247 -3.47602,-0.11537 -0.20374,0.33 0.49501,0.65191 1.55279,0.71537 1.05778,0.0635 1.92323,-0.20655 1.92323,-0.6 z m -6.4,-0.71537 c 0,-0.44 -0.36,-0.8 -0.8,-0.8 -0.44,0 -0.8,0.36 -0.8,0.8 0,0.44 0.36,0.8 0.8,0.8 0.44,0 0.8,-0.36 0.8,-0.8 z m -20,-2.3067 c 0,-0.38868 -0.81,-0.91078 -1.8,-1.16021 -1.73846,-0.43801 -1.74691,-0.41385 -0.24709,0.70669 1.81138,1.35333 2.04709,1.40555 2.04709,0.45352 z M 253.59999,76.000004 V 27.200001 h 129.6 129.6 v 48.800003 48.800006 h -129.6 -129.6 z m 257.6,0 V 28.800001 h -128 -128 v 47.200003 47.200006 h 128 128 z m -253.6,0 V 31.200001 h 125.6 125.6 v 44.800003 44.800006 h -125.6 -125.6 z m 249.6,0 V 32.800002 h -124 -124 v 43.200002 43.200006 h 124 124 z m -140.8,21.840001 c 0,-1.68 -0.21333,-1.946667 -0.96,-1.2 -1.23753,1.237534 -4.84247,1.237534 -6.08,0 -0.74667,-0.746667 -0.96,-0.746667 -0.96,0 0,0.528 -0.69719,0.96 -1.54931,0.96 -1.14843,0 -1.6328,-0.672758 -1.87197,-2.600001 l -0.32266,-2.6 -0.12803,2.557209 -0.12803,2.557208 -4.59043,-0.157208 c -3.79779,-0.130063 -4.64056,-0.418707 -4.8807,-1.671615 -0.22915,-1.195606 0.0636,-1.421884 1.39044,-1.074896 2.14779,0.56166 2.16447,-0.3237 0.0312,-1.655953 -1.14275,-0.713657 -1.57285,-1.694427 -1.4,-3.192438 0.22166,-1.921052 0.58428,-2.162307 3.25003,-2.162307 1.65028,0 3.00028,-0.27 3,-0.6 -2.9e-4,-0.33 0.71947,-0.6 1.59947,-0.6 1.06667,0 1.6,0.533333 1.6,1.6 0,1.043478 0.53333,1.6 1.53333,1.6 0.84334,0 1.69834,0.45 1.9,1 0.29334,0.8 0.57867,0.8 1.42667,0 1.34711,-1.270857 4.92598,-1.294021 6.18,-0.04 0.74667,0.746667 0.96,0.746667 0.96,0 0,-0.58765 1.24884,-0.96 3.2198,-0.96 2.7414,0 3.33875,0.312848 4.02034,2.105582 0.77215,2.030912 0.85589,2.055491 2.36134,0.693082 1.87792,-1.699501 1.43224,-2.814594 -0.88297,-2.209153 -1.32633,0.346842 -1.61851,0.120565 -1.38825,-1.075104 0.2175,-1.129369 0.9786,-1.514407 2.99351,-1.514407 3.73197,0 4.9387,2.021395 3.11344,5.215323 -1.13957,1.994066 -1.17233,2.384677 -0.2,2.384677 0.63953,0 1.16279,0.566691 1.16279,1.259312 0,0.987304 -0.82079,1.231145 -3.8,1.128911 -6.36568,-0.218442 -7.4,-0.04907 -7.4,1.211778 0,0.666666 -0.71111,1.199995 -1.6,1.199995 -1.20494,0 -1.6,-0.533329 -1.6,-2.159995 z m -3.2,-4.240001 c 0,-0.88 -0.36,-1.6 -0.8,-1.6 -0.44,0 -0.8,0.72 -0.8,1.6 0,0.88 0.36,1.6 0.8,1.6 0.44,0 0.8,-0.72 0.8,-1.6 z m 8,0 c 0,-0.44 -0.36,-0.8 -0.8,-0.8 -0.44,0 -0.8,0.36 -0.8,0.8 0,0.44 0.36,0.8 0.8,0.8 0.44,0 0.8,-0.36 0.8,-0.8 z m -20,-2.306695 c 0,-0.388682 -0.81,-0.910777 -1.8,-1.16021 -1.73846,-0.438012 -1.74691,-0.413853 -0.2471,0.706695 1.81139,1.353328 2.0471,1.405548 2.0471,0.453515 z M 148,34.000002 V 16.800001 h 47.19999 47.2 v 17.200001 17.2 h -47.2 H 148 Z m 92.79999,0 V 18.400001 h -45.6 H 149.6 v 15.600001 15.6 h 45.59999 45.6 z m -88.79999,0 V 20.800001 h 43.19999 43.2 v 13.200001 13.2 h -43.2 H 152 Z m 84.79999,0 V 22.400001 h -41.6 H 153.6 v 11.600001 11.6 h 41.59999 41.6 z m -74.01177,5 c -2.33989,-6.471733 -2.73535,-8.172879 -2.05749,-8.85073 1.21419,-1.21419 3.26341,0.03144 3.33242,2.025622 0.0582,1.680709 0.12673,1.651048 0.86667,-0.374893 1.05731,-2.894897 3.50409,-2.898262 4.46813,-0.0061 l 0.73128,2.193856 0.56397,-2.247011 c 0.39021,-1.554745 0.98647,-2.159575 1.93538,-1.963205 0.75428,0.156094 1.33569,0.814351 1.29203,1.462793 -0.0602,0.894716 0.6631,1.10818 3,0.88532 2.05954,-0.196408 3.07939,0.03155 3.07939,0.688318 0,0.771467 0.25626,0.769299 1.1954,-0.01011 0.65747,-0.545653 2.09747,-0.819655 3.2,-0.608893 1.6817,0.321477 2.0046,0.07892 2.0046,-1.50586 0,-1.355729 0.45172,-1.889063 1.6,-1.889063 1.06666,0 1.59999,0.533334 1.59999,1.6 0,1.036524 0.53334,1.600001 1.51441,1.600001 1.77974,0 2.48559,1.495275 2.48559,5.26543 0,2.171415 -0.31906,2.73457 -1.54931,2.73457 -1.14842,0 -1.6328,-0.672758 -1.87197,-2.6 l -0.32266,-2.6 -0.12803,2.545773 -0.12803,2.545774 -7.79999,-0.145774 -7.8,-0.145773 -0.29552,-2.8 -0.29551,-2.8 -0.97176,2.8 C 171.40563,39.772353 168,41.35009 168,38.855643 c 0,-0.690603 -0.36,-1.255641 -0.8,-1.255641 -0.44,0 -0.8,0.54 -0.8,1.2 0,1.450372 -3.09768,1.621904 -3.61178,0.2 z M 0.79999998,10.516654 c 0,-0.8029064 0.91693902,-1.877615 2.03764232,-2.3882416 C 5.5294818,6.9019282 920.79998,6.7738927 920.79998,8.0000004 c 0,0.532397 -153.00199,0.8010003 -457.39999,0.8029905 C 8.8292866,8.8059628 5.9839173,8.815787 3.3999999,10.391232 c -2.47096235,1.506575 -2.59999992,1.5128 -2.59999992,0.125422 z m 0,-6.8508635 c 0,-0.6020345 0.56944352,-1.3131243 1.26542992,-1.5801994 1.6546495,-0.6349486 915.8144701,-0.6349486 917.4691201,0 0.69598,0.2670751 1.26543,0.9781649 1.26543,1.5801994 0,0.8444299 -0.46902,0.9162897 -2.05208,0.314409 -2.82029,-1.072272 -913.0755315,-1.072272 -915.8958203,0 C 1.2690135,4.5820802 0.79999998,4.5102204 0.79999998,3.6657905 Z"
       id="path1" />
  </g>
</svg>
