<?xml version="1.0" encoding="UTF-8" standalone="no"?>
<!-- Created with Inkscape (http://www.inkscape.org/) -->

<svg
   version="1.1"
   id="svg1"
   width="943.20001"
   height="518.40002"
   viewBox="0 0 943.20001 518.40002"
   xmlns="http://www.w3.org/2000/svg"
   xmlns:svg="http://www.w3.org/2000/svg">
  <defs
     id="defs1" />
  <g
     id="g1">
    <path
       style="fill:#000000"
       d="M 0.89057167,512.8904 C -2.6328846,511.47647 -6.4023575,507.97719 -8.0350014,504.6046 L -9.6791287,501.20829 -9.47527,256.41018 -9.2714112,11.612079 -7.3435524,8.7985817 c 1.0603224,-1.547424 3.1939443,-3.681034 4.741382,-4.741356 L 0.21135267,2.1293668 458.66998,2.1305668 c 308.55369,8.19e-4 459.62523,0.267846 462.02649,0.816654 2.45839,0.561868 3.70224,1.3077939 4,2.3987819 0.23767,0.87084 1.15213,2.647513 2.03213,3.948163 1.5914,2.3520963 1.6,3.6864223 1.6,248.0586243 V 503.0466 l -1.90743,2.78372 c -1.04909,1.53105 -3.20909,3.66467 -4.8,4.74138 l -2.89257,1.95767 -38,0.50231 C 818.84313,513.84974 2.9547068,513.71871 0.89057167,512.8904 Z M 918.16833,507.8054 c 1.18815,-0.61819 3.06027,-2.08719 4.16027,-3.26443 l 2,-2.14044 0.21971,-243.33558 c 0.12084,-133.83457 0.031,-244.117837 -0.19976,-245.073925 -0.23072,-0.956088 -1.35159,-2.846089 -2.49083,-4.2000003 l -2.07135,-2.461658 -458.12889,0.003 c -455.7284794,0.003 -458.1425523,0.01132 -460.73620313,1.592688 -1.4340216,0.874334 -3.32267597,2.7629883 -4.19700957,4.1970103 -1.5770958,2.586644 -1.5896277,4.532013 -1.5808945,245.407325 0.00698,192.62064 0.2154439,243.20838 1.0086645,244.776 0.5499238,1.08679 2.2178548,2.79679 3.70651317,3.8 L 2.5652021,508.9294 H 459.28663 c 390.68894,0 457.03376,-0.16251 458.8817,-1.12399 z M 17.528589,391.32938 v -94.4 h 56 56.000001 v 94.4 94.40001 h -56.000001 -56 z m 108.000001,0 v -90.4 h -52.000001 -52 v 90.4 90.40001 h 52 52.000001 z m -59.200001,8.09327 c 0,-3.50425 0.200722,-3.94511 1.948284,-4.27918 2.758312,-0.52729 3.820736,0.40125 3.515777,3.07272 -0.168103,1.47259 -0.91817,2.60017 -2.064061,3.1029 -0.99,0.43433 -1.8,1.06433 -1.8,1.4 0,0.33566 -0.36,0.61029 -0.8,0.61029 -0.44,0 -0.8,-1.75803 -0.8,-3.90673 z m 3.68,-2.17327 c -0.387238,-1.00912 -0.772452,-1.14754 -1.412452,-0.50754 -0.484,0.484 -0.640396,1.50439 -0.347548,2.26754 0.387238,1.00913 0.772452,1.14755 1.412452,0.50755 0.484,-0.484 0.640397,-1.5044 0.347548,-2.26755 z m -22.975771,3.16461 c -0.967516,-1.16579 -0.895325,-1.25308 0.634719,-0.76746 2.545495,0.80791 2.89582,-0.62448 0.633766,-2.59131 -2.274068,-1.97728 -2.427639,-2.75237 -0.811145,-4.09394 1.316671,-1.09274 3.771697,-0.84367 3.628226,0.3681 -0.05209,0.44 -0.611111,0.69422 -1.242257,0.56493 -1.710438,-0.35037 -1.386256,1.25102 0.452462,2.23507 1.789981,0.95797 2.096896,3.18311 0.64,4.64 -1.321371,1.32137 -2.643241,1.20201 -3.935771,-0.35539 z m 13.495771,0.45131 c -3.490439,-2.03299 -0.166693,-7.44475 3.4,-5.53592 2.063272,1.10423 2.095124,4.47873 0.05259,5.57186 -1.841627,0.98561 -1.696113,0.98712 -3.452593,-0.0359 z m 2.917005,-2.00811 c 0.544087,-1.41787 -0.01499,-2.72781 -1.164218,-2.72781 -0.414033,0 -0.752787,0.9 -0.752787,2 0,2.23787 1.167455,2.6811 1.917005,0.72781 z m 10.082995,2.07219 c -1.025518,-0.66274 -0.996437,-0.77728 0.2,-0.78775 1.068794,-0.009 1.4,-0.68583 1.4,-2.85946 0,-1.56597 -0.335124,-2.6401 -0.744721,-2.38695 -0.409597,0.25314 -0.95968,0.11245 -1.222407,-0.31265 -0.415555,-0.67238 1.845333,-2.45319 3.114535,-2.45319 0.248926,0 0.452593,1.8 0.452593,4 0,2.28194 0.363891,4 0.847214,4 0.465967,0 0.624721,0.36 0.352786,0.8 -0.624886,1.01109 -2.835453,1.01109 -4.4,0 z m -20.8,-4.4 c 0,-3.37777 0.278788,-4.4 1.2,-4.4 0.666667,0 1.2,0.71111 1.2,1.6 0,0.88 0.27,1.55737 0.6,1.50527 2.001736,-0.31607 2.6,0.35002 2.6,2.89473 0,1.54 -0.36,2.8 -0.8,2.8 -0.44,0 -0.8,-0.87875 -0.8,-1.95278 0,-1.07404 -0.36,-2.17528 -0.8,-2.44722 -0.466738,-0.28846 -0.8,0.52503 -0.8,1.95279 0,1.64197 -0.394855,2.44721 -1.2,2.44721 -0.921212,0 -1.2,-1.02222 -1.2,-4.4 z m 28.389264,1.5023 c 1.577444,-3.77535 1.529767,-4.3023 -0.389264,-4.3023 -0.88,0 -1.6,-0.36 -1.6,-0.8 0,-0.84192 5.000559,-1.13277 5.796204,-0.33713 0.793004,0.79301 -2.748345,8.33713 -3.9136,8.33713 -0.919136,0 -0.90127,-0.48538 0.10666,-2.8977 z M 763.1286,382.12938 v -98.8 h 72.4 72.4 v 98.8 98.80001 h -72.4 -72.4 z m 140.8,0 v -94.8 h -68.4 -68.4 v 94.8 94.80001 h 68.4 68.4 z m -69.6,0.49326 c 0,-3.50424 0.20072,-3.9451 1.94828,-4.27917 2.75832,-0.52729 3.82074,0.40125 3.51578,3.07272 -0.1681,1.47259 -0.91817,2.60017 -2.06406,3.1029 -0.99,0.43433 -1.8,1.06433 -1.8,1.4 0,0.33566 -0.36,0.61029 -0.8,0.61029 -0.44,0 -0.8,-1.75803 -0.8,-3.90674 z m 3.68,-2.17326 c -0.38724,-1.00912 -0.77245,-1.14755 -1.41245,-0.50755 -0.484,0.484 -0.6404,1.5044 -0.34755,2.26755 0.38724,1.00913 0.77245,1.14755 1.41245,0.50755 0.484,-0.484 0.6404,-1.5044 0.34755,-2.26755 z m -22.97577,3.16461 c -0.96752,-1.16579 -0.89533,-1.25308 0.63472,-0.76746 2.54549,0.80791 2.89582,-0.62448 0.63376,-2.59131 -2.27406,-1.97728 -2.42763,-2.75237 -0.81114,-4.09394 1.31667,-1.09274 3.7717,-0.84367 3.62823,0.3681 -0.0521,0.44 -0.61111,0.69422 -1.24226,0.56493 -1.71044,-0.35037 -1.38626,1.25102 0.45246,2.23507 1.78998,0.95797 2.0969,3.18311 0.64,4.64 -1.32137,1.32137 -2.64324,1.20201 -3.93577,-0.35539 z m 13.49577,0.45131 c -3.49044,-2.03299 -0.16669,-7.44475 3.4,-5.53592 2.06327,1.10423 2.09512,4.47873 0.0526,5.57186 -1.84162,0.9856 -1.69611,0.98712 -3.45259,-0.0359 z m 2.91701,-2.00811 c 0.54408,-1.41787 -0.015,-2.72781 -1.16422,-2.72781 -0.41404,0 -0.75279,0.9 -0.75279,2 0,2.23787 1.16746,2.6811 1.91701,0.72781 z m 10.08299,2.07219 c -1.02552,-0.66274 -0.99644,-0.77728 0.2,-0.78775 1.0688,-0.009 1.4,-0.68583 1.4,-2.85946 0,-1.56597 -0.33512,-2.6401 -0.74472,-2.38695 -0.4096,0.25314 -0.95968,0.11245 -1.22241,-0.31265 -0.41555,-0.67238 1.84534,-2.45319 3.11454,-2.45319 0.24892,0 0.45259,1.8 0.45259,4 0,2.28194 0.36389,4 0.84721,4 0.46597,0 0.62473,0.36 0.35279,0.8 -0.62489,1.01109 -2.83545,1.01109 -4.4,0 z m 6.6,0.27018 c -0.55,-0.22193 -1,-0.77203 -1,-1.22244 0,-0.4504 0.57249,-0.59924 1.27219,-0.33073 2.31754,0.88932 3.02495,-0.48483 1.03664,-2.01369 -1.57309,-1.20958 -1.66259,-1.47087 -0.50883,-1.48553 0.77,-0.01 1.4,-0.57357 1.4,-1.25286 0,-0.67929 -0.46064,-1.12929 -1.02364,-1 -0.563,0.12929 -1.12202,-0.12493 -1.24226,-0.56493 -0.31916,-1.16796 2.16133,-1.4827 3.42433,-0.4345 1.27161,1.05534 1.45421,6.39222 0.26807,7.8345 -0.84932,1.03272 -1.89605,1.16843 -3.6265,0.47018 z m -27.4,-4.67018 c 0,-3.37778 0.27879,-4.4 1.2,-4.4 0.66667,0 1.2,0.71111 1.2,1.6 0,0.88 0.27,1.55737 0.6,1.50527 2.00174,-0.31607 2.6,0.35002 2.6,2.89473 0,1.54 -0.36,2.8 -0.8,2.8 -0.44,0 -0.8,-0.87875 -0.8,-1.95278 0,-1.07404 -0.36,-2.17528 -0.8,-2.44722 -0.46674,-0.28846 -0.8,0.52503 -0.8,1.95279 0,1.64197 -0.39485,2.44721 -1.2,2.44721 -0.92121,0 -1.2,-1.02222 -1.2,-4.4 z m -498.40001,50.4 v -50 h 106.00001 106 v 50 50.00001 h -106 -106.00001 z m 208.00001,0 v -46 h -102 -102.00001 v 46 46.00001 h 102.00001 102 z m -128,2.09327 c 0,-3.50425 0.20072,-3.94511 1.94828,-4.27918 2.75831,-0.52728 3.82074,0.40125 3.51578,3.07272 -0.16811,1.47259 -0.91817,2.60017 -2.06406,3.1029 -0.99,0.43433 -1.8,1.06433 -1.8,1.4 0,0.33566 -0.36,0.6103 -0.8,0.6103 -0.44,0 -0.8,-1.75804 -0.8,-3.90674 z m 3.68,-2.17327 c -0.38724,-1.00912 -0.77246,-1.14754 -1.41246,-0.50754 -0.484,0.484 -0.64039,1.50439 -0.34754,2.26754 0.38723,1.00913 0.77245,1.14755 1.41245,0.50755 0.484,-0.484 0.64039,-1.50439 0.34755,-2.26755 z m -22.97578,3.16461 c -0.96751,-1.16579 -0.89532,-1.25308 0.63472,-0.76746 2.5455,0.80791 2.89582,-0.62448 0.63377,-2.59131 -2.27407,-1.97728 -2.42764,-2.75237 -0.81115,-4.09394 1.31668,-1.09274 3.7717,-0.84366 3.62823,0.3681 -0.0521,0.44 -0.61111,0.69422 -1.24226,0.56494 -1.71043,-0.35038 -1.38625,1.25101 0.45247,2.23506 1.78998,0.95797 2.09689,3.18311 0.64,4.64 -1.32138,1.32138 -2.64325,1.20201 -3.93578,-0.35539 z m 13.49578,0.45132 c -3.49044,-2.033 -0.1667,-7.44476 3.4,-5.53593 2.06327,1.10423 2.09512,4.47873 0.0526,5.57186 -1.84163,0.98561 -1.69612,0.98712 -3.45259,-0.0359 z m 2.917,-2.00812 c 0.54409,-1.41787 -0.015,-2.72781 -1.16422,-2.72781 -0.41403,0 -0.75278,0.9 -0.75278,2 0,2.23787 1.16745,2.68111 1.917,0.72781 z m 10.083,2.07219 c -1.02552,-0.66274 -0.99644,-0.77728 0.2,-0.78774 1.06879,-0.009 1.4,-0.68584 1.4,-2.85947 0,-1.56597 -0.33513,-2.64009 -0.74473,-2.38695 -0.40959,0.25315 -0.95968,0.11245 -1.2224,-0.31265 -0.41556,-0.67238 1.84533,-2.45319 3.11453,-2.45319 0.24893,0 0.4526,1.8 0.4526,4 0,2.28195 0.36389,4 0.84721,4 0.46597,0 0.62472,0.36 0.35279,0.8 -0.62489,1.01109 -2.83546,1.01109 -4.4,0 z m 6.13333,0.26667 c -1.07462,-1.07462 -0.48737,-1.84294 1.26667,-1.65723 2.43773,0.25808 2.39223,-2.12549 -0.0472,-2.47126 -1.48124,-0.20995 -1.7982,-0.68539 -1.6,-2.4 0.19214,-1.66212 0.73699,-2.19454 2.44718,-2.39131 1.21,-0.13923 2.2,0.13077 2.2,0.6 0,0.46922 -0.54,0.85313 -1.2,0.85313 -1.74951,0 -1.46809,1.4071 0.4,2 2.09182,0.66392 2.12638,4.062 0.0526,5.17186 -1.79485,0.96057 -2.77167,1.0424 -3.51926,0.29481 z m -26.93333,-4.66667 c 0,-3.37777 0.27878,-4.4 1.2,-4.4 0.66666,0 1.2,0.71112 1.2,1.6 0,0.88 0.27,1.55737 0.6,1.50527 2.00173,-0.31607 2.6,0.35002 2.6,2.89473 0,1.54 -0.36,2.8 -0.8,2.8 -0.44,0 -0.8,-0.87875 -0.8,-1.95278 0,-1.07403 -0.36,-2.17528 -0.8,-2.44722 -0.46674,-0.28846 -0.8,0.52503 -0.8,1.95279 0,1.64197 -0.39486,2.44721 -1.2,2.44721 -0.92122,0 -1.2,-1.02222 -1.2,-4.4 z m -238.40001,-1.2 v -49.6 h 68.4 68.4 v 49.6 49.60001 h -68.4 -68.4 z m 132.8,0 v -45.6 h -64.4 -64.4 v 45.6 45.60001 h 64.4 64.4 z m -68.8,8.89327 c 0,-3.50425 0.20072,-3.94511 1.94829,-4.27918 2.75831,-0.52728 3.82073,0.40125 3.51577,3.07272 -0.1681,1.47259 -0.91817,2.60017 -2.06406,3.1029 -0.99,0.43433 -1.8,1.06433 -1.8,1.4 0,0.33566 -0.36,0.6103 -0.8,0.6103 -0.44,0 -0.8,-1.75804 -0.8,-3.90674 z m 3.68,-2.17326 c -0.38723,-1.00913 -0.77245,-1.14755 -1.41245,-0.50755 -0.484,0.484 -0.6404,1.50439 -0.34755,2.26755 0.38724,1.00912 0.77246,1.14754 1.41246,0.50754 0.484,-0.484 0.64039,-1.50439 0.34754,-2.26754 z m -22.97577,3.1646 c -0.96751,-1.16579 -0.89532,-1.25308 0.63472,-0.76746 2.5455,0.80791 2.89582,-0.62448 0.63377,-2.59131 -2.27407,-1.97728 -2.42764,-2.75237 -0.81115,-4.09394 1.31667,-1.09274 3.7717,-0.84366 3.62823,0.3681 -0.0521,0.44 -0.61111,0.69422 -1.24226,0.56494 -1.71044,-0.35038 -1.38626,1.25101 0.45246,2.23506 1.78998,0.95797 2.0969,3.18311 0.64,4.64001 -1.32137,1.32137 -2.64324,1.202 -3.93577,-0.3554 z m 13.49577,0.45132 c -3.49044,-2.033 -0.16669,-7.44476 3.4,-5.53593 2.06327,1.10423 2.09513,4.47873 0.0526,5.57186 -1.84163,0.98561 -1.69612,0.98712 -3.4526,-0.0359 z m 2.91701,-2.00812 c 0.54408,-1.41787 -0.015,-2.72781 -1.16422,-2.72781 -0.41403,0 -0.75279,0.9 -0.75279,2.00001 0,2.23786 1.16746,2.6811 1.91701,0.7278 z m 10.08299,2.0722 c -1.02551,-0.66275 -0.99643,-0.77729 0.2,-0.78775 1.0688,-0.009 1.4,-0.68584 1.4,-2.85947 0,-1.56597 -0.33512,-2.64009 -0.74472,-2.38695 -0.40959,0.25315 -0.95968,0.11245 -1.2224,-0.31265 -0.41556,-0.67238 1.84533,-2.45319 3.11453,-2.45319 0.24893,0 0.45259,1.8 0.45259,4 0,2.28195 0.36389,4.00001 0.84722,4.00001 0.46596,0 0.62472,0.36 0.35278,0.8 -0.62488,1.01108 -2.83545,1.01108 -4.4,0 z m 7,-0.0641 c -1.7809,-1.03728 -1.87093,-5.75071 -0.14285,-7.47878 1.34398,-1.34399 4.34285,-1.72409 4.34285,-0.55045 0,0.38868 -0.81,0.94706 -1.8,1.24085 l -1.8,0.53415 1.81774,0.73993 c 2.50628,1.02022 3.04707,2.93878 1.3553,4.80817 -1.61644,1.78614 -1.84524,1.82896 -3.77304,0.70613 z m 2.6,-2.78314 c 0,-0.63403 -0.36,-1.15279 -0.8,-1.15279 -0.44,0 -0.8,0.74125 -0.8,1.64722 0,0.90597 0.36,1.42472 0.8,1.15279 0.44,-0.27194 0.8,-1.01319 0.8,-1.64722 z m -30.4,-1.55279 c 0,-3.37777 0.27879,-4.4 1.2,-4.4 0.66667,0 1.2,0.71112 1.2,1.6 0,0.88 0.27,1.55737 0.6,1.50527 2.00174,-0.31607 2.6,0.35002 2.6,2.89474 0,1.54 -0.36,2.8 -0.8,2.8 -0.44,0 -0.8,-0.87876 -0.8,-1.95279 0,-1.07403 -0.36,-2.17528 -0.8,-2.44722 -0.46674,-0.28846 -0.8,0.52503 -0.8,1.95279 0,1.64197 -0.39485,2.44722 -1.2,2.44722 -0.92121,0 -1.2,-1.02223 -1.2,-4.40001 z m 361.60001,-8 v -47.6 h 88.8 88.8 v 47.6 47.60001 h -88.8 -88.8 z m 173.6,0 v -43.6 h -84.8 -84.8 v 43.6 43.60001 h 84.8 84.8 z m -96.8,4.49327 c 0,-3.50425 0.20072,-3.94511 1.94828,-4.27918 2.75831,-0.52728 3.82074,0.40125 3.51578,3.07272 -0.1681,1.47259 -0.91817,2.60017 -2.06406,3.1029 -0.99,0.43433 -1.8,1.06433 -1.8,1.4 0,0.33566 -0.36,0.61029 -0.8,0.61029 -0.44,0 -0.8,-1.75803 -0.8,-3.90673 z m 3.68,-2.17327 c -0.38724,-1.00912 -0.77245,-1.14754 -1.41245,-0.50754 -0.484,0.484 -0.6404,1.50439 -0.34755,2.26754 0.38724,1.00913 0.77245,1.14755 1.41245,0.50755 0.484,-0.484 0.6404,-1.50439 0.34755,-2.26755 z m -22.97577,3.16461 c -0.96752,-1.16579 -0.89533,-1.25308 0.63472,-0.76746 2.54549,0.80791 2.89582,-0.62448 0.63376,-2.59131 -2.27407,-1.97728 -2.42764,-2.75237 -0.81114,-4.09394 1.31667,-1.09274 3.77169,-0.84366 3.62822,0.3681 -0.0521,0.44 -0.61111,0.69422 -1.24225,0.56494 -1.71044,-0.35038 -1.38626,1.25101 0.45246,2.23506 1.78998,0.95797 2.09689,3.18311 0.64,4.64 -1.32137,1.32138 -2.64324,1.20201 -3.93577,-0.35539 z m 13.49577,0.45132 c -3.49044,-2.033 -0.16669,-7.44476 3.4,-5.53593 2.06327,1.10423 2.09512,4.47873 0.0526,5.57186 -1.84163,0.98561 -1.69611,0.98712 -3.45259,-0.0359 z m 2.917,-2.00812 c 0.54409,-1.41787 -0.015,-2.72781 -1.16422,-2.72781 -0.41403,0 -0.75278,0.9 -0.75278,2 0,2.23787 1.16745,2.68111 1.917,0.72781 z m 10.083,2.07219 c -1.02552,-0.66274 -0.99644,-0.77728 0.2,-0.78774 1.06879,-0.009 1.4,-0.68584 1.4,-2.85947 0,-1.56597 -0.33513,-2.64009 -0.74472,-2.38695 -0.4096,0.25315 -0.95968,0.11245 -1.22241,-0.31265 -0.41555,-0.67238 1.84533,-2.45319 3.11454,-2.45319 0.24892,0 0.45259,1.8 0.45259,4 0,2.28195 0.36389,4 0.84721,4 0.46597,0 0.62472,0.36 0.35279,0.8 -0.62489,1.01109 -2.83545,1.01109 -4.4,0 z m -20.8,-4.4 c 0,-3.37777 0.27879,-4.4 1.2,-4.4 0.66667,0 1.2,0.71112 1.2,1.6 0,0.88 0.27,1.55737 0.6,1.50527 2.00173,-0.31607 2.6,0.35002 2.6,2.89473 0,1.54 -0.36,2.8 -0.8,2.8 -0.44,0 -0.8,-0.87875 -0.8,-1.95278 0,-1.07403 -0.36,-2.17528 -0.8,-2.44722 -0.46674,-0.28846 -0.8,0.52503 -0.8,1.95279 0,1.64197 -0.39486,2.44721 -1.2,2.44721 -0.92121,0 -1.2,-1.02222 -1.2,-4.4 z m 29.6,3.6 c 0,-0.44 -0.72,-0.8 -1.6,-0.8 -2.01924,0 -2.02171,-1.29853 -0.009,-4.6 2.04731,-3.35782 3.20877,-3.30252 3.20877,0.15279 0,1.51403 0.37748,2.98608 0.83885,3.27122 0.57344,0.35441 0.54245,0.87557 -0.098,1.64722 -1.08758,1.31045 -2.34089,1.48648 -2.34089,0.32877 z m -236.4,-130.13902 c -87.15858,-2.54217 -164.7682,-14.61829 -197.60001,-30.74674 -38.71123,-19.01669 -18.58693,-41.70839 49.55581,-55.87799 84.3063,-17.53067 217.54295,-21.0173 320.4442,-8.38563 57.41254,7.04769 99.13154,18.62876 113.8831,31.61361 3.9747,3.49867 6.9262,8.79834 6.89933,12.38835 -0.19151,25.58768 -85.08856,45.98487 -211.18243,50.73827 -18.80932,0.70906 -62.06565,0.85156 -82,0.27013 z m 102.8,-5.03519 c 81.67841,-4.9063 140.66055,-15.21565 169.41813,-29.6122 17.16123,-8.59121 20.92405,-16.17303 12.28969,-24.76283 -15.82106,-15.73941 -75.44369,-29.69235 -152.10782,-35.59641 -35.10512,-2.70352 -49.56497,-3.1955 -94,-3.19828 -44.49512,-0.003 -60.29838,0.52978 -94.8,3.19471 -63.95579,4.93999 -116.9087,15.55204 -141.53602,28.36457 -20.48095,10.65536 -20.01889,21.11643 1.40645,31.84234 29.50139,14.7689 94.49975,25.99517 172.12957,29.72954 9.9,0.47624 21.06,0.98759 24.8,1.13634 13.40877,0.53329 88.68034,-0.27366 102.4,-1.09778 z M 405.26193,265.99604 c -0.29333,-0.29333 -0.53333,-2.81333 -0.53333,-5.6 v -5.06666 h 3.6 c 3.90406,0 4.97886,1.33457 1.40684,1.74686 -3.02911,0.34962 -3.55937,3.05314 -0.59884,3.05314 2.55381,0 2.32905,1.8731 -0.27067,2.25564 -1.23644,0.18193 -1.73733,0.81621 -1.73733,2.2 0,1.89362 -0.78824,2.48945 -1.86667,1.41102 z m 7.46667,-5.46666 c 0,-4.8 0.24,-6 1.2,-6 0.96,0 1.2,1.2 1.2,6 0,4.8 -0.24,6 -1.2,6 -0.96,0 -1.2,-1.2 -1.2,-6 z m 4.02814,4.45259 c -2.78348,-5.20099 3.39562,-10.23007 6.72649,-5.47459 l 1.24537,1.77801 1.24536,-1.77801 c 1.7654,-2.52047 5.69309,-2.42732 6.87332,0.163 1.27596,2.80042 0.25447,5.93486 -2.12908,6.53309 -2.61604,0.65659 -4.28453,-0.0507 -5.05908,-2.14448 -0.62189,-1.68112 -0.65087,-1.67558 -1.99922,0.38227 -1.69677,2.5896 -5.64127,2.89857 -6.90316,0.54071 z m 5.06831,-1.83315 c 0.56994,-0.90354 0.51014,-1.64756 -0.20134,-2.50483 -1.35187,-1.62891 -3.29511,-0.78108 -3.29511,1.43764 0,3.08989 1.86207,3.65823 3.49645,1.06719 z m 9.30355,-1.01944 c 0,-2.09207 -1.77247,-3.10754 -3.10252,-1.77749 -1.75452,1.75452 -0.20534,4.87565 2,4.02938 0.60638,-0.23269 1.10252,-1.24604 1.10252,-2.25189 z m 3.73333,3.86666 c -0.29333,-0.29333 -0.53333,-2.27333 -0.53333,-4.4 v -3.86666 h 2.8 c 3.10776,0 3.6517,1.08788 1.2,2.4 -1.12739,0.60335 -1.6,1.67506 -1.6,3.62814 0,2.62242 -0.67423,3.43096 -1.86667,2.23852 z m 9.06667,-0.36105 c 0,-0.49191 1.08,-2.12444 2.4,-3.62784 1.32,-1.5034 2.4,-3.08092 2.4,-3.50561 0,-0.42469 -1.08,-0.77216 -2.4,-0.77216 -2.96989,0 -3.15128,-1.38096 -0.27618,-2.10257 4.64611,-1.1661 6.41813,2.78498 3.04624,6.79224 l -2.11229,2.51033 h 2.51832 c 1.47518,0 2.31353,0.33138 2.02391,0.8 -0.68735,1.11214 -7.6,1.02629 -7.6,-0.0944 z M 19.513868,277.70556 c -0.687581,-1.11253 13.176351,-54.46643 14.537904,-55.94761 0.945498,-1.02858 1.209047,-1.02858 2.161107,0 1.386924,1.49838 15.249071,54.78483 14.547323,55.92028 -0.708547,1.14645 -30.538553,1.17254 -31.246334,0.0273 z m 26.546092,-4.97618 c -4.751555,-18.78751 -10.623296,-40.59102 -10.931371,-40.5914 -0.22,-2.8e-4 -2.655879,8.72767 -5.413065,19.39545 -2.757186,10.66777 -5.229173,20.20595 -5.493305,21.19595 l -0.480241,1.8 h 11.386611 11.38661 z M 765.5286,204.92937 v -57.6 h 68.4 68.4 v 57.6 57.60001 h -68.4 -68.4 z m 132.8,0 v -53.6 h -64.4 -64.4 v 53.6 53.60001 h 64.4 64.4 z m -81.6,20.89327 c 0,-3.50425 0.20072,-3.94511 1.94828,-4.27918 2.75832,-0.52728 3.82074,0.40125 3.51578,3.07272 -0.1681,1.47259 -0.91817,2.60017 -2.06406,3.1029 -0.99,0.43433 -1.8,1.06433 -1.8,1.4 0,0.33566 -0.36,0.6103 -0.8,0.6103 -0.44,0 -0.8,-1.75804 -0.8,-3.90674 z m 3.68,-2.17326 c -0.38724,-1.00913 -0.77245,-1.14755 -1.41245,-0.50755 -0.484,0.484 -0.6404,1.50439 -0.34755,2.26755 0.38724,1.00912 0.77245,1.14754 1.41245,0.50754 0.484,-0.484 0.6404,-1.50439 0.34755,-2.26754 z m -22.97577,3.1646 c -0.96752,-1.16579 -0.89533,-1.25308 0.63472,-0.76746 2.54549,0.80791 2.89582,-0.62448 0.63376,-2.59131 -2.27406,-1.97728 -2.42763,-2.75237 -0.81114,-4.09394 1.31667,-1.09274 3.7717,-0.84366 3.62823,0.3681 -0.0521,0.44 -0.61111,0.69422 -1.24226,0.56494 -1.71044,-0.35038 -1.38626,1.25101 0.45246,2.23507 1.78998,0.95796 2.0969,3.1831 0.64,4.64 -1.32137,1.32137 -2.64324,1.202 -3.93577,-0.3554 z m 13.49577,0.45132 c -3.49044,-2.033 -0.16669,-7.44476 3.4,-5.53593 2.06327,1.10423 2.09512,4.47873 0.0526,5.57186 -1.84162,0.98561 -1.69611,0.98712 -3.45259,-0.0359 z m 2.91701,-2.00812 c 0.54408,-1.41787 -0.015,-2.7278 -1.16422,-2.7278 -0.41404,0 -0.75279,0.9 -0.75279,2 0,2.23786 1.16746,2.6811 1.91701,0.7278 z m 10.08299,2.0722 c -1.02552,-0.66275 -0.99644,-0.77729 0.2,-0.78775 1.06879,-0.009 1.4,-0.68584 1.4,-2.85947 0,-1.56597 -0.33512,-2.64009 -0.74472,-2.38695 -0.4096,0.25315 -0.95968,0.11245 -1.22241,-0.31265 -0.41555,-0.67238 1.84534,-2.45319 3.11454,-2.45319 0.24892,0 0.45259,1.8 0.45259,4.00001 0,2.28194 0.36389,4 0.84721,4 0.46597,0 0.62473,0.36 0.35279,0.8 -0.62489,1.01108 -2.83545,1.01108 -4.4,0 z m 5.9634,-0.0592 c -0.29207,-0.47257 0.22669,-1.66577 1.15279,-2.65156 1.85594,-1.97556 2.27098,-4.69419 0.66017,-4.32428 -0.56301,0.12928 -1.10301,-0.12494 -1.2,-0.56494 -0.30189,-1.36942 3.20161,-0.87554 4.12026,0.58083 0.66519,1.05454 0.53333,1.95246 -0.55803,3.8 -1.24683,2.1107 -1.27027,2.41918 -0.18382,2.41918 0.68488,0 1.24523,0.36 1.24523,0.8 0,1.07694 -4.56633,1.02529 -5.2366,-0.0592 z m -26.7634,-4.34077 c 0,-3.37778 0.27879,-4.40001 1.2,-4.40001 0.66667,0 1.2,0.71112 1.2,1.6 0,0.88 0.27,1.55737 0.6,1.50527 2.00174,-0.31607 2.6,0.35002 2.6,2.89474 0,1.54 -0.36,2.8 -0.8,2.8 -0.44,0 -0.8,-0.87876 -0.8,-1.95279 0,-1.07403 -0.36,-2.17528 -0.8,-2.44721 -0.46674,-0.28847 -0.8,0.52502 -0.8,1.95278 0,1.64197 -0.39485,2.44722 -1.2,2.44722 -0.92121,0 -1.2,-1.02223 -1.2,-4.4 z m -747.200011,28 v -4.4 h 2.8 c 1.54,0 2.8,0.36 2.8,0.8 0,0.44 -0.72,0.8 -1.6,0.8 -0.88,0 -1.6,0.36 -1.6,0.8 0,0.44 0.72,0.8 1.6,0.8 0.88,0 1.6,0.36 1.6,0.8 0,0.44 -0.72,0.8 -1.6,0.8 -0.888889,0 -1.6,0.53333 -1.6,1.2 0,0.66666 0.711111,1.2 1.6,1.2 0.88,0 1.6,0.36 1.6,0.8 0,0.44 -1.26,0.8 -2.8,0.8 h -2.8 z m 6.4,-0.4 c 0,-4.26667 0.177778,-4.8 1.6,-4.8 1.266667,0 1.6,0.53333 1.6,2.56 0,1.99111 0.213334,2.34666 0.96,1.6 1.234001,-1.234 4.046,-1.234 5.28,0 1.625668,1.62566 1.070891,3.03451 -1.24,3.14894 -1.886275,0.0934 -1.943316,0.15839 -0.4,0.45564 0.99,0.19069 1.8,0.68166 1.8,1.09106 0,1.08337 -4.31191,0.91245 -5.44,-0.21564 -0.746666,-0.74667 -0.96,-0.74667 -0.96,0 0,0.528 -0.72,0.96 -1.6,0.96 -1.422222,0 -1.6,-0.53334 -1.6,-4.8 z m 11.690138,2.87432 c -0.265823,-1.05913 -0.703366,-2.49913 -0.972317,-3.2 -0.316854,-0.82571 -0.0554,-1.27432 0.742678,-1.27432 0.677425,0 1.489127,0.81 1.803783,1.8 l 0.572103,1.8 0.804059,-1.8 c 0.442233,-0.99 1.289046,-1.8 1.881808,-1.8 1.347215,0 1.342315,0.21819 -0.08143,3.62569 -1.392603,3.33297 -4.009814,3.80049 -4.750684,0.84863 z m 6.360643,1.20784 c -0.244006,-0.39481 -0.216418,-1.85398 0.0613,-3.24259 0.451595,-2.25798 0.768216,-2.49913 2.996433,-2.28217 2.249803,0.21906 2.515566,0.5336 2.739774,3.2426 0.243552,2.94273 0.194823,3 -2.552787,3 -1.540593,0 -3.000719,-0.32303 -3.244725,-0.71784 z m 3.332553,-3.7655 c -0.265834,-0.26583 -0.955834,-0.29425 -1.533334,-0.0632 -0.638186,0.25538 -0.448621,0.44494 0.483334,0.48333 0.843333,0.0347 1.315833,-0.15434 1.05,-0.42018 z m 4.662689,3.48334 c -1.835558,-6.04275 -0.556578,-8.82485 2.603977,-5.66429 0.971361,0.97136 1.064885,1.42599 0.342858,1.66667 -1.178756,0.39292 -1.34931,3.39762 -0.192858,3.39762 0.440001,0 0.800001,0.36 0.800001,0.8 0,1.16271 -3.194648,0.98293 -3.553978,-0.2 z m 4.334316,-0.22372 c -1.667975,-2.00979 0.231186,-5.17631 3.10455,-5.17631 3.187442,0 4.625352,1.8438 3.449882,4.42369 -1.05144,2.30765 -4.897366,2.74926 -6.554432,0.75262 z m 4.462742,-1.24602 c 0.82442,-1.33393 -1.029772,-2.86361 -2.133372,-1.76 -0.923142,0.92314 -0.34538,2.62971 0.89029,2.62971 0.38807,0 0.947452,-0.39137 1.243082,-0.86971 z m 3.55692,-0.73029 c 0,-2.88 0.2,-3.2 2,-3.2 1.1,0 2,0.36 2,0.8 0,0.44 -0.36,0.8 -0.8,0.8 -0.44,0 -0.8,1.08 -0.8,2.4 0,1.6 -0.4,2.4 -1.2,2.4 -0.86667,0 -1.2,-0.88889 -1.2,-3.2 z M 15.928589,108.92937 V 22.529368 h 57.6 57.600001 v 86.400002 86.4 h -57.600001 -57.6 z m 111.200001,0 V 26.529368 h -53.600001 -53.6 v 82.400002 82.4 h 53.6 53.600001 z m -57.600001,0.89326 c 0,-3.5549 0.184183,-3.94195 2.045162,-4.29769 1.879111,-0.35922 4.354838,1.05269 4.354838,2.48357 0,1.22963 -2.557619,4.12086 -3.645363,4.12086 -0.63505,0 -1.154637,0.36 -1.154637,0.8 0,0.44 -0.36,0.8 -0.8,0.8 -0.44,0 -0.8,-1.75803 -0.8,-3.90674 z m 3.68,-2.17326 c -0.387238,-1.00913 -0.772452,-1.14755 -1.412452,-0.50755 -0.484,0.484 -0.640396,1.5044 -0.347548,2.26755 0.387238,1.00913 0.772452,1.14755 1.412452,0.50755 0.484,-0.484 0.640397,-1.5044 0.347548,-2.26755 z m -22.975771,3.1646 c -0.967516,-1.16578 -0.895325,-1.25307 0.634719,-0.76745 2.545495,0.8079 2.89582,-0.62449 0.633766,-2.59132 -2.274068,-1.97727 -2.427639,-2.75236 -0.811145,-4.09394 1.316671,-1.09274 3.771698,-0.84366 3.628226,0.36811 -0.0521,0.44 -0.61111,0.69422 -1.242257,0.56493 -1.710438,-0.35038 -1.386256,1.25102 0.452462,2.23507 1.789981,0.95797 2.096896,3.1831 0.64,4.64 -1.321371,1.32137 -2.643241,1.20201 -3.935771,-0.3554 z m 13.330708,0.23987 c -1.733811,-1.26779 -1.214238,-4.85424 0.816111,-5.63336 3.49376,-1.34068 6.094446,4.11844 2.801545,5.88074 -1.937256,1.03679 -1.853632,1.04251 -3.617656,-0.24738 z m 3.082068,-1.79666 c 0.544087,-1.41787 -0.01499,-2.72781 -1.164218,-2.72781 -0.414033,0 -0.752787,0.9 -0.752787,2 0,2.23787 1.167455,2.6811 1.917005,0.72781 z m 9.682995,2.07219 c -0.271935,-0.44 0.246819,-0.8 1.152787,-0.8 2.104934,0 2.103527,-0.93015 -0.0034,-2.24595 -1.963943,-1.2265 -1.806243,-3.99127 0.30073,-5.27235 2.058371,-1.25153 4.854697,2.15879 4.155319,5.06772 -0.769476,3.20048 -4.352323,5.27816 -5.605439,3.25058 z m 3.6,-5.15279 c 0,-0.63403 -0.335124,-1.3599 -0.744721,-1.61305 -0.951112,-0.58782 -1.907683,0.91023 -1.255279,1.96584 0.735644,1.1903 2,0.96727 2,-0.35279 z m -24,0.75279 c 0,-3.37778 0.278788,-4.4 1.2,-4.4 0.666667,0 1.2,0.71111 1.2,1.6 0,0.88 0.27,1.55737 0.6,1.50526 2.001736,-0.31606 2.6,0.35002 2.6,2.89474 0,1.54 -0.36,2.8 -0.8,2.8 -0.44,0 -0.8,-0.87875 -0.8,-1.95279 0,-1.07403 -0.36,-2.17528 -0.8,-2.44721 -0.466738,-0.28846 -0.8,0.52503 -0.8,1.95279 0,1.64196 -0.394855,2.44721 -1.2,2.44721 -0.921212,0 -1.2,-1.02222 -1.2,-4.4 z M 147.92859,75.329372 V 21.729368 h 107.2 107.20001 v 53.600004 53.599998 h -107.20001 -107.2 z m 210.4,0 V 25.729368 h -103.2 -103.2 v 49.600004 49.599998 h 103.2 103.2 z m -48.8,-4.57801 c 0,-2.92343 -0.0228,-2.94542 -1.24536,-1.2 -2.25752,3.22307 -6.3716,1.54098 -5.81605,-2.37796 0.34275,-2.41775 4.47436,-3.07624 6.02196,-0.95976 0.98415,1.3459 1.03945,1.34686 1.03945,0.0179 0,-1.10162 0.55936,-1.34965 2.6,-1.1529 2.29985,0.22175 2.6,0.52775 2.6,2.65069 0,1.72157 -0.50882,2.62323 -1.8,3.1897 -0.99,0.43434 -1.8,1.24434 -1.8,1.8 0,0.55566 -0.36,1.0103 -0.8,1.0103 -0.44,0 -0.8,-1.3401 -0.8,-2.97801 z m -2.92053,-2.19637 c 0.5642,-1.47028 -0.93574,-2.48934 -2.03947,-1.38562 -0.85392,0.85393 -0.23972,2.56 0.92163,2.56 0.36695,0 0.86999,-0.52847 1.11784,-1.17438 z m 6.92053,-0.87284 c 0,-0.63403 -0.54,-1.15278 -1.2,-1.15278 -1.20498,0 -1.64454,1.68879 -0.68841,2.64492 0.74659,0.74659 1.88841,-0.15562 1.88841,-1.49214 z m -23.6,2.84722 c -0.27193,-0.44 -0.20318,-0.84153 0.15279,-0.89228 0.35597,-0.0508 1.00721,-0.17592 1.44721,-0.27815 0.44,-0.10223 1.12257,-0.2407 1.51682,-0.30772 0.39425,-0.067 -0.25036,-1.01821 -1.43248,-2.11376 -1.80868,-1.67623 -2.00881,-2.25439 -1.26284,-3.64826 0.93684,-1.7505 3.21725,-1.84662 3.77906,-0.15929 0.21147,0.63511 -0.12956,0.82299 -0.93371,0.51441 -1.84038,-0.70622 -1.55593,1.07404 0.33315,2.08505 1.91381,1.02423 2.13615,4.42308 0.33457,5.11441 -1.86041,0.7139 -3.37377,0.59297 -3.93457,-0.31441 z m 6.51159,0.24492 c -0.89797,-0.89797 -0.57073,-9.04492 0.36331,-9.04492 0.48119,0 1.05448,0.68671 1.27396,1.52603 0.21949,0.83932 1.08579,1.70562 1.92511,1.92511 1.14425,0.29923 1.52603,1.11832 1.52603,3.27396 0,1.58119 -0.36,2.8749 -0.8,2.8749 -0.44,0 -0.8,-1.08 -0.8,-2.4 0,-1.32 -0.36,-2.4 -0.8,-2.4 -0.44,0 -0.8,0.87875 -0.8,1.95278 0,2.00737 -0.98165,3.19889 -1.88841,2.29214 z m 19.88841,-0.24492 c -0.27193,-0.44 0.0668,-0.8 0.75279,-0.8 1.80504,0 1.67317,-4.46369 -0.15279,-5.17155 -1.31076,-0.50813 -1.30325,-0.61393 0.11786,-1.65996 2.16523,-1.59374 2.88214,-0.77818 2.88214,3.27872 0,1.95403 0.36,3.55279 0.8,3.55279 0.44,0 0.8,0.36 0.8,0.8 0,0.44 -1.05875,0.8 -2.35278,0.8 -1.29403,0 -2.57528,-0.36 -2.84722,-0.8 z m 6.34324,-1.17437 c -1.50135,-2.29134 -0.74902,-5.76066 1.5545,-7.16848 2.02001,-1.23455 4.80414,2.23118 4.08717,5.08779 -1.09926,4.37981 -3.54437,5.28158 -5.64167,2.08069 z m 3.51931,-3.15305 c -0.1444,-1.16728 -0.62255,-2.20113 -1.06255,-2.29745 -0.96112,-0.2104 -1.52375,3.02728 -0.83703,4.81682 0.74893,1.95171 2.21254,0.0106 1.89958,-2.51937 z M 484.7286,76.529372 V 26.529368 h 28.4 28.4 v 50.000004 49.999998 h -28.4 -28.4 z m 52.8,0 v -46 h -24.4 -24.4 v 46 45.999998 h 24.4 24.4 z m -38.21887,1.8 c -1.39019,-1.70621 -2.62139,-7.27975 -1.79145,-8.10969 0.47715,-0.47715 0.94417,-0.18975 1.26084,0.77591 1.25557,3.82877 1.36364,3.89825 2.07451,1.33378 0.75954,-2.74008 2.06927,-3.41917 2.70007,-1.4 1.22854,3.93245 1.38935,4.03463 2.2032,1.4 0.44173,-1.43 1.11108,-2.6 1.48743,-2.6 0.90289,0 0.86354,0.97951 -0.21071,5.24574 -0.66199,2.62901 -1.28676,3.55426 -2.4,3.55426 -1.09269,0 -1.5229,-0.60274 -1.57028,-2.2 l -0.0653,-2.2 -1.13704,2.6 c -1.27667,2.91929 -1.40884,3.00218 -2.55131,1.6 z m 9.44795,-0.16496 c -1.11217,-1.34008 -0.46983,-2.83504 1.21813,-2.83504 0.63403,0 1.15279,-0.39852 1.15279,-0.88559 0,-0.48708 -0.54,-0.67838 -1.2,-0.42511 -0.66,0.25326 -1.2,0.1503 -1.2,-0.22882 0,-1.19292 2.55399,-1.72859 3.7014,-0.77633 0.60423,0.50147 1.0986,1.54916 1.0986,2.32821 0,0.77905 0.59152,1.64345 1.3145,1.92088 1.80693,0.69338 2.17791,0.10535 0.70483,-1.1172 -1.47678,-1.22561 -1.58506,-2.91037 -0.21933,-3.4126 1.34551,-0.49481 3,0.13876 3,1.14882 0,0.4504 -0.63,0.59952 -1.4,0.33137 -1.33334,-0.46434 -1.33334,-0.43565 0,0.6026 0.77,0.59959 1.4,1.64195 1.4,2.31637 0,1.50519 -2.27456,2.48615 -3.5014,1.51007 -0.49423,-0.39322 -1.6186,-0.42473 -2.4986,-0.07 -2.27435,0.91671 -2.49251,0.8918 -3.57092,-0.4076 z m 10.37092,-4.03504 c 0,-3.37778 0.27878,-4.4 1.2,-4.4 0.66666,0 1.2,0.71111 1.2,1.6 0,0.88 0.27,1.55737 0.6,1.50526 2.00173,-0.31606 2.6,0.35002 2.6,2.89474 0,1.54 -0.36,2.8 -0.8,2.8 -0.44,0 -0.8,-0.87876 -0.8,-1.95279 0,-1.07403 -0.36,-2.17528 -0.8,-2.44721 -0.46674,-0.28846 -0.8,0.52502 -0.8,1.95278 0,1.64197 -0.39486,2.44722 -1.2,2.44722 -0.92122,0 -1.2,-1.02222 -1.2,-4.4 z m 48,1.2 V 24.129368 h 167.6 167.6 v 51.200004 51.199998 h -167.6 -167.6 z m 331.2,0 V 28.129368 h -163.6 -163.6 v 47.200004 47.199998 h 163.6 163.6 z m -174.4,10.49326 c 0,-3.50425 0.20072,-3.94511 1.94828,-4.27918 2.75832,-0.52728 3.82074,0.40126 3.51578,3.07272 -0.1681,1.4726 -0.91817,2.60017 -2.06406,3.1029 -0.99,0.43434 -1.8,1.06434 -1.8,1.4 0,0.33566 -0.36,0.6103 -0.8,0.6103 -0.44,0 -0.8,-1.75803 -0.8,-3.90674 z m 3.68,-2.17326 c -0.38724,-1.00913 -0.77245,-1.14755 -1.41245,-0.50755 -0.484,0.484 -0.6404,1.5044 -0.34755,2.26755 0.38724,1.00912 0.77245,1.14755 1.41245,0.50755 0.484,-0.484 0.6404,-1.5044 0.34755,-2.26755 z m -22.97577,3.1646 c -0.96752,-1.16578 -0.89533,-1.25307 0.63472,-0.76746 2.54549,0.80791 2.89582,-0.62448 0.63376,-2.59131 -2.27406,-1.97727 -2.42764,-2.75237 -0.81114,-4.09394 1.31667,-1.09274 3.7717,-0.84366 3.62822,0.36811 -0.0521,0.44 -0.61111,0.69422 -1.24225,0.56493 -1.71044,-0.35038 -1.38626,1.25102 0.45246,2.23507 1.78998,0.95797 2.0969,3.1831 0.64,4.64 -1.32137,1.32137 -2.64324,1.20201 -3.93577,-0.3554 z m 13.49577,0.45132 c -3.49044,-2.03299 -0.16669,-7.44476 3.4,-5.53592 2.06327,1.10423 2.09512,4.47872 0.0526,5.57185 -1.84162,0.98561 -1.69611,0.98713 -3.45259,-0.0359 z m 2.917,-2.00812 c 0.54409,-1.41786 -0.015,-2.7278 -1.16421,-2.7278 -0.41404,0 -0.75279,0.9 -0.75279,2 0,2.23787 1.16745,2.6811 1.917,0.7278 z m 10.083,2.0722 c -1.02552,-0.66274 -0.99644,-0.77728 0.2,-0.78775 1.06879,-0.009 1.4,-0.68583 1.4,-2.85947 0,-1.56596 -0.33512,-2.64009 -0.74472,-2.38695 -0.4096,0.25315 -0.95968,0.11246 -1.22241,-0.31264 -0.41555,-0.67239 1.84533,-2.45319 3.11454,-2.45319 0.24892,0 0.45259,1.8 0.45259,4 0,2.28194 0.36389,4 0.84721,4 0.46597,0 0.62472,0.36 0.35279,0.8 -0.62489,1.01109 -2.83545,1.01109 -4.4,0 z m 6.8,0 c -0.27194,-0.44 -0.11318,-0.8 0.35279,-0.8 0.46596,0 0.84721,-1.08 0.84721,-2.4 0,-1.32 -0.36,-2.4 -0.8,-2.4 -0.44,0 -0.8,-0.54 -0.8,-1.2 0,-0.66 0.15056,-1.2 0.33457,-1.2 0.18401,0 0.90401,-0.21852 1.6,-0.48559 1.05211,-0.40373 1.26543,0.20315 1.26543,3.6 0,2.34218 0.36152,4.08559 0.84721,4.08559 0.46597,0 0.62472,0.36 0.35279,0.8 -0.27194,0.44 -1.17194,0.8 -2,0.8 -0.82807,0 -1.72807,-0.36 -2,-0.8 z m -27.6,-4.4 c 0,-3.37778 0.27879,-4.4 1.2,-4.4 0.66667,0 1.2,0.71111 1.2,1.6 0,0.88 0.27,1.55737 0.6,1.50526 2.00174,-0.31606 2.6,0.35002 2.6,2.89474 0,1.54 -0.36,2.8 -0.8,2.8 -0.44,0 -0.8,-0.87876 -0.8,-1.95279 0,-1.07403 -0.36,-2.17528 -0.8,-2.44721 -0.46674,-0.28846 -0.8,0.52502 -0.8,1.95278 0,1.64197 -0.39486,2.44722 -1.2,2.44722 -0.92121,0 -1.2,-1.02222 -1.2,-4.4 z m -296.64,41.039998 c -0.66018,-0.66018 -0.96,-4.65778 -0.96,-12.8 V 99.329375 h -4.42511 c -3.15625,0 -4.55457,-0.33737 -4.8766,-1.17655 -0.51982,-1.35465 20.13734,-28.423453 21.69095,-28.423453 1.34977,0 21.61076,26.063313 21.61076,27.799633 0,1.15905 -0.86164,1.44141 -5,1.63854 l -5,0.23818 v 12.761815 12.76183 h -11.04 c -7.52,0 -11.34609,-0.30609 -12,-0.96 z m 19.04,-14.94204 c 0,-13.154315 0.0932,-13.411535 5.01256,-13.838345 l 2.99227,-0.25961 -7.71415,-9.859703 c -6.34373,-8.10811 -7.89675,-9.67144 -8.74203,-8.8 -0.56534,0.58283 -4.10019,5.0197 -7.85523,9.8597 l -6.82734,8.800003 3.36696,0.4 3.36696,0.4 0.22031,12.599995 0.22031,12.6 h 7.97969 7.97969 z M 416.27989,67.090912 c -0.24873,-0.64817 -0.33952,-2.74968 -0.20176,-4.67002 0.22532,-3.14101 0.47132,-3.51693 2.45047,-3.74466 1.21,-0.13923 2.2,0.13077 2.2,0.6 0,0.46923 -0.72,0.85314 -1.6,0.85314 -2.1949,0 -2.02807,2.20451 0.2,2.6428 l 1.8,0.35408 -1.8,0.59486 c -2.3603,0.78003 -2.33141,2.80826 0.04,2.80826 2.51653,0 3.87774,-1.48518 2.95001,-3.21866 -0.64856,-1.21184 -0.24427,-1.3846 3.43412,-1.46747 2.29307,-0.0517 4.29072,-0.45842 4.43921,-0.9039 0.39818,-1.19456 2.19598,-0.98441 3.33666,0.39003 0.68808,0.82909 0.71836,1.2 0.098,1.2 -0.49387,0 -0.89795,0.9 -0.89795,2 0,1.1 0.432,2 0.96,2 0.72714,0 0.73536,0.22463 0.0339,0.92609 -1.28431,1.28431 -3.20024,-0.39816 -3.62655,-3.18464 -0.29031,-1.89756 -0.34127,-1.84164 -0.44749,0.49096 -0.11463,2.51752 -0.25078,2.62555 -3.11986,2.47539 -1.65,-0.0864 -4.52921,0.11057 -6.39824,0.43761 -2.65048,0.46379 -3.49775,0.33531 -3.85047,-0.58387 z m 10.83646,-2.76154 c -0.009,-1.60111 -0.20655,-1.89308 -0.72599,-1.07255 -0.39255,0.6201 -0.52852,1.6101 -0.30216,2.2 0.64917,1.6917 1.04145,1.26153 1.02815,-1.12745 z m 0.45447,-4.13167 c -0.25758,-0.41678 -0.12733,-0.96852 0.28945,-1.2261 0.41677,-0.25758 0.96852,-0.12733 1.2261,0.28944 0.25758,0.41677 0.12733,0.96852 -0.28945,1.2261 -0.41677,0.25758 -0.96851,0.12733 -1.2261,-0.28944 z"
       id="path3" />
  </g>
</svg>
